<svg enable-background="new 0 0 274 150" viewBox="0 0 274 150" xmlns="http://www.w3.org/2000/svg"><path d="m174.57 90.97c-.88-.26-2.51-1.53-2.75-2.46-.8-2.97 3.63-14.12 6.21-16.73.19-.25.48-.3.68-.3 1.18 0 3.77 2.04 4.11 3.32.05.21-.27-.05-.69-.1-2.15-.21-6.04 11.46-6.09 13.56 2.9-.82 8.46-7.93 10.78-10.95.3-.25.66.16.55.31-3.16 4.81-9.07 13.15-12.17 13.4-.21 0-.36 0-.63-.05m10.21-25.69c.6.51 1.11 1.28.91 1.28-.11 0-.57-.21-1.07.05-.77.36-2.57 2.46-2.94 3.32-.47.93-1.84-.15-2.13-1.07-.45-1.48.6-4.8 1.82-5.21 1.14-.16 2.54.86 3.41 1.63" fill="#b3b3b3"/><path d="m200.61 88.26c2.99-.87 8.43-7.88 10.88-10.95.23-.25.6.16.49.31-3.15 4.87-9.23 13.3-12.3 13.3-.51 0-1.2-.46-1.88-1.07-.74-.66-1.3-1.43-1.46-2-.78-2.92 2.87-11.46 4.88-13.87-3.69 1.89-9.55 8.08-12.24 12.18-.49.66-.9 1.43-1.27 2.14-.94 1.64-.93 3.02-.07 3.38-1.44.36-3.11-1.28-3.91-2.77-.2-.35-.32-1.74.34-4.09.58-2.41 1.72-5.43 2.77-7.78 1.15-2.61 2.67-5.32 3.73-6.35.15-.2.44-.25.6-.25 1.28 0 3.76 2 4.1 3.28.05.2-.22-.05-.64-.11-.68-.05-1.99 2.11-3 4.1-1.55 3.18-3.2 6.95-3.59 8.4.34-.83 1.05-1.84 1.84-2.87 4.22-5.63 11.38-12.54 13.12-12.54 1.23 0 3.6 2.76 3.09 3.32-.99 1.03-6.03 11.83-5.48 14.24" fill="#b3b3b3"/><path d="m62 93.52v-40.67h8.62v33.55h16.5v7.12z" fill="#b3b3b3"/><path d="m121.67 75.91v10.49h4.47c.04-3.49.9-7.04 2.4-10.49z" fill="none"/><g fill="#b3b3b3"><path d="m135.45 73.28c6.75-12.08 19.71-23.2 28.98-23.2 2.25 0 4.82 1.02 5.43 3.27 1.19 4.46-4.74 9.82-8.37 9.82-.3 0 .5-2.14.72-2.51-1.36.66-2.67 2.66-2.35 3.84.21.77 1.87 2.2 3.04 2.2 5.53 0 10.99-6.91 9.43-12.74-1-3.73-5.45-4.91-7.96-4.91-10.67 0-24.07 8.69-31.84 19.8h2.92z"/><path d="m131.29 91.22c.17.84.43 1.62.82 2.3h4.36v-7.12h-5.45c-.13 1.68-.05 3.29.27 4.82z"/><path d="m125.57 49.6h5.62v-.75c-3.2-3.71-5.37-6.5-6.54-8.38h-9.51v.58c1.26 1.23 3.02 2.76 5.29 4.58 2.26 1.83 3.96 3.15 5.14 3.97z"/><path d="m136.47 59.92v-7.06h-23.42v40.67h14.33c-.21-.47-.39-.97-.53-1.49-.51-1.84-.73-3.73-.71-5.64h-4.47v-10.49h6.86 5.55 1.36v-2.63-4.43h-2.92-10.85v-8.93z"/><path d="m168.64 69.83c-4.19 0-23.79 1.74-22.57 6.29.47 1.74 2.81 3.58 2.67 3.07-.67-2.51 11.7-6.55 21.51-7.57-6.34 7.47-21.09 23.43-31.98 24.46-3.31.29-5.16-.8-6.16-2.55-.39-.68-.65-1.46-.82-2.3-.32-1.52-.4-3.14-.27-4.82.26-3.34 1.37-6.92 3.06-10.49h-5.55c-1.49 3.45-2.36 7-2.4 10.49-.02 1.9.21 3.79.71 5.64.14.52.32 1.01.53 1.49 1.66 3.79 5.24 6.1 9.72 5.83 8.56-.52 18.82-9.98 25.08-16.38-3.18 5.68-6.18 17.04-4.07 24.92.26.97 1.05 1.63 1.56 1.63.21 0 .23-.1.2-.2-.03-.11-.18-.11-.27-.46-.21-.77-.4-3.02-.05-5.53.93-7.01 5.74-20.59 13.44-27.73 2.51-2.33 4.89-3.94 7.38-3.38-.43-.78-5.78-2.41-11.72-2.41z"/><path d="m94.19 52.85h8.62v40.67h-8.62z"/></g></svg>