<svg enable-background="new 0 0 274 150" viewBox="0 0 274 150" xmlns="http://www.w3.org/2000/svg"><path d="m203.6 78v1.2c0 .2-.1.4-.1.6v19.7c0 .3 0 .5-.4.5-4.8 0-9.5 0-14.3 0-.3 0-.4-.1-.4-.4 0-2.6 0-5.1 0-7.7 0-4.4 0-8.8 0-13.2 0-2-1.3-3.7-3.2-4.2-1.2-.3-2.5-.3-3.7.1-2.5.7-5 2.8-4.9 6.5.1 6.1 0 12.3 0 18.4 0 .4-.1.4-.4.4-4.7 0-9.4 0-14.2 0-.5 0-.5 0-.5-.5 0-6.5 0-13 0-19.5 0-.5 0-.9-.1-1.4-.1-1.9-1.3-3.4-3.1-3.9-1.9-.6-3.8-.3-5.6.6-2.4 1.2-3.8 3.1-3.7 6v18.4c0 .3-.1.4-.4.4-6.6 0-13.3 0-19.9 0-1.7 0-3.3-.1-4.9-.5-6.1-1.3-10.4-4.9-12.6-10.7-1-2.7-1.4-5.5-1.4-8.3 0-2 0-4 0-5.9 0-.1 0-.3 0-.4-.1.1-.2.2-.3.3-3.5 6-6.9 12-10.4 18-1.1 1.8-2.1 3.7-3.2 5.5-.9 1.5-2.4 2.2-4.1 1.8-1.2-.2-2-1-2.6-2-3.2-5.6-6.5-11.2-9.7-16.9-2.8-4.9-5.7-9.8-8.5-14.7-.4-.7-.7-1.4-.6-2.2 0-2.1 1.7-3.7 3.8-3.7h10.3c.2 0 .4.1.5.3.6 1 1.2 2.1 1.8 3.1 1.5 2.6 3 5.2 4.5 7.8.3.6.8.9 1.5.9.6 0 1-.4 1.3-.9 2.1-3.6 4.2-7.2 6.2-10.8.2-.3.3-.4.6-.4h16.4c.3 0 .5-.1.6-.4 1.9-3.3 3.8-6.6 5.7-9.8.1-.1.1-.2.2-.3h.1v10.5h.4 6.2c.4 0 .5.1.5.4v12.7c0 .5 0 .5-.5.5-2.1 0-4.2 0-6.3 0-.2 0-.4 0-.4.3 0 2 0 4.1.1 6.1.1 1.3.5 2.4 1.2 3.5 1.3 1.8 3.1 2.5 5.2 2.6h4.6c.3 0 .4-.1.4-.4 0-1.8 0-3.7 0-5.5 0-6.6 0-13.1 0-19.7 0-.2 0-.4.3-.4h13.2c.3 0 .3.1.3.3v3.5.4h.1c.1-.1.2-.1.2-.2 2.9-2.3 6.3-3.4 9.9-3.8 1.6-.1 3.2-.1 4.8.3 4 .8 7.3 2.8 9.5 6.3.1.1.1.2.2.3.1-.1.2-.2.2-.3.7-1 1.5-1.8 2.4-2.6 4.6-3.6 9.7-4.8 15.4-3.6 4 .9 7.1 3.2 9.1 6.8 1.5 2.8 2.1 5.8 2.3 8.9.3.6.4.9.4 1.3z" fill="#b3b3b3"/></svg>