<svg enable-background="new 0 0 274 150" viewBox="0 0 274 150" xmlns="http://www.w3.org/2000/svg"><g fill="#b3b3b3"><path d="m86.6 104.4h5.5c4.3 0 6.3 2.3 6.3 7.1v11.6c0 5-1.8 7.3-6.1 7.3h-5.7zm5.8 22.2c1.5 0 2-1 2-2.7v-12.5c0-2.1-1-3.1-3.1-3.1h-.9v18.4z"/><path d="m101.2 104.4h10.1v3.8h-6.3v6.8h4.5v3.8h-4.5v7.8h6.3v3.9h-10.1z"/><path d="m114.3 104.4h3.8v22.3h6v3.8h-9.8z"/><path d="m130.1 104.4v10.7h3.9v-10.7h3.9v26.1h-3.9v-11.7h-3.9v11.7h-3.8v-26.1z"/><path d="m144.6 104.4h5.1l4.1 26h-4l-.8-5.6h-3.9l-.8 5.6h-3.8zm3.9 16.7-1.3-10.9h-.3l-1.4 10.9z"/><path d="m156 104.4h3.9v26h-3.9z"/><path d="m162.9 126.4 7-17.9-6.4-.1v-4h10.6v3.8l-7.1 18.2h7.1v4.1h-11.2z"/><path d="m176.9 104.4h10.1v3.8h-6.2v6.8h4.5v3.8h-4.5v7.8h6.2v3.9h-10.1z"/><path d="m142.5 98.1 1.6-5.7 5-1.4 11.9-23-17.3 8.5h-14.6l-4.7 8.5 4.7 7.5-1.1 5.6h-17.8l1.3-5 4.8-2.8-4.4-10.9-10.2 13.7 1.3 4.9-15.9.1 2.1-6.8 3.1-1.4 7.2-11.4-3-10.1-5.7 2.8 8.4-24.1-3.8-5.6 2.1-3.2 5.5 4.4 3.4-5.5h-13l.1 2.8-3.6-.1.4-5.5h15.8l-.7-2.4-8.3 1.3-2.3-7.6 10.3-.2.7-2.1 13.9-.2 8.8-2.7-2.9 9.3 3.3-2.7 1 24.7h44.3v-5.5h-38l-1.2-11.7 1.2-11.3h45.4v12.2l-5.4-6.5h-34.8l-.6 5.6.6 5.8h34.7l5.5 4.6v20l5.3 21.6-3.8 11.5h-16.7l2.2-5.7 5.5-1.2 2.2-5-6.5-7.1-9.3 13-.7 6z"/></g></svg>