<svg height="150" viewBox="0 0 274 150" width="274" xmlns="http://www.w3.org/2000/svg"><path d="m0 0h274v150h-274z" fill="none"/><g fill="#b3b3b3"><path d="m143.741 37.993c5.683 0 8.6 3.4 8.6 9.349v1.965h-5.524v-2.337c0-2.656-1.062-3.664-2.921-3.664s-2.922 1.008-2.922 3.664c0 7.647 11.42 9.081 11.42 19.7 0 5.948-2.974 9.349-8.711 9.349s-8.71-3.4-8.71-9.349v-3.607h5.527v3.983c0 2.656 1.169 3.613 3.028 3.613s3.026-.957 3.026-3.613c0-7.648-11.419-9.081-11.419-19.7.001-5.953 2.922-9.353 8.606-9.353z" transform="translate(-49.606 8.168)"/><path d="m173.81 38.86h18.058v5.311h-6.107v31.866h-5.843v-31.866h-6.108z" transform="translate(-69.348 7.727)"/><path d="m230.087 76.037h-5.9l-1.01-6.744h-7.171l-1.006 6.744h-5.364l5.948-37.177h8.551zm-13.332-11.79h5.63l-2.814-18.8z" transform="translate(-87.564 7.727)"/><path d="m262.591 49.109v26.928h-5.259v-37.177h7.331l6 22.253v-22.253h5.2v37.177h-6z" transform="translate(-111.811 7.727)"/><path d="m305.331 38.86h9.24c5.843 0 8.711 3.241 8.711 9.188v18.8c0 5.948-2.867 9.189-8.711 9.189h-9.24zm5.842 5.311v26.555h3.291c1.861 0 2.976-.956 2.976-3.612v-19.331c0-2.656-1.115-3.612-2.976-3.612z" transform="translate(-136.214 7.727)"/><path d="m367.537 76.037h-5.9l-1.01-6.744h-7.169l-1.007 6.744h-5.367l5.951-37.177h8.549zm-13.337-11.79h5.631l-2.816-18.8z" transform="translate(-157.443 7.727)"/><path d="m408.6 76.037c-.319-.955-.53-1.539-.53-4.567v-5.843c0-3.451-1.168-4.726-3.824-4.726h-2.018v15.136h-5.848v-37.177h8.82c6.054 0 8.657 2.814 8.657 8.55v2.922c0 3.825-1.223 6.32-3.824 7.542 2.922 1.221 3.878 4.037 3.878 7.913v5.735a10.956 10.956 0 0 0 .635 4.515zm-6.373-31.866v11.419h2.283c2.18 0 3.507-.956 3.507-3.931v-3.665c0-2.656-.9-3.823-2.976-3.823z" transform="translate(-182.504 7.727)"/><path d="m441.483 38.86h9.24c5.843 0 8.712 3.241 8.712 9.188v18.8c0 5.948-2.869 9.189-8.712 9.189h-9.24zm5.842 5.311v26.555h3.291c1.859 0 2.976-.956 2.976-3.612v-19.331c0-2.656-1.117-3.612-2.976-3.612z" transform="translate(-205.434 7.727)"/><path d="m136.94 130h4.395c2.779 0 4.143 1.54 4.143 4.371v8.943c0 2.828-1.364 4.371-4.143 4.371h-4.395zm2.778 2.525v12.633h1.568c.885 0 1.414-.455 1.414-1.718v-9.2c0-1.262-.529-1.718-1.414-1.718z" transform="translate(-50.603 -38.606)"/><path d="m161.657 137.447h3.815v2.528h-3.815v5.178h4.8v2.527h-7.579v-17.68h7.579v2.525h-4.8z" transform="translate(-61.757 -38.606)"/><path d="m186.189 130h2.778v15.158h4.574v2.527h-7.352z" transform="translate(-75.642 -38.606)"/><path d="m205.491 130h2.78v17.685h-2.78z" transform="translate(-85.455 -38.606)"/><path d="m219.161 133.5h3.816v2.528h-3.816v5.179h4.8v2.527h-7.579v-17.684h7.579v2.525h-4.8zm.555-11.267 1.819 2.956h-2.1l-2.729-2.956z" transform="translate(-90.992 -34.66)"/><path d="m240.315 137.618h3.89v5.609c0 2.829-1.414 4.447-4.143 4.447s-4.144-1.618-4.144-4.447v-9.2c0-2.829 1.414-4.446 4.144-4.446s4.143 1.616 4.143 4.446v1.717h-2.627v-1.892c0-1.263-.557-1.745-1.441-1.745s-1.438.482-1.438 1.745v9.548c0 1.264.555 1.718 1.438 1.718s1.441-.453 1.441-1.718v-3.26h-1.262z" transform="translate(-100.924 -38.397)"/><path d="m260.15 137.447h3.816v2.528h-3.816v5.178h4.8v2.527h-7.579v-17.68h7.579v2.525h-4.8z" transform="translate(-111.831 -38.606)"/><path d="m57.661 49.3c-.7-6.3-1.566-11.9-1.707-12.8h-5.185a28.5 28.5 0 0 0 -22.352 0h-5.317c-.141.9-1 6.5-1.707 12.8-1.01 9.057-1.233 15.434-.648 18.445a34.411 34.411 0 0 0 4.877 12.611c3.169 4.811 7.719 8.69 13.905 11.862 6.188-3.171 10.736-7.051 13.908-11.862a34.442 34.442 0 0 0 4.876-12.611c.589-3.012.364-9.39-.65-18.445zm-23.725-12.8a27.084 27.084 0 0 1 11.313 0z" transform="translate(8.632 10.088)"/><path d="m28.66 19.092c.127.195 3.023 3.483 5.072 5.793a29.645 29.645 0 0 1 19.767 0c2.047-2.312 4.944-5.6 5.07-5.787a1.443 1.443 0 0 1 .108-.158c.1-.127.242-.312.213-.467a.417.417 0 0 0 -.2-.265c-.262-.161-.881.4-1.282.768-.1.091-.2.182-.291.261-.061.055-.142.129-.227.211a6.745 6.745 0 0 1 -2.59 1.665 10.3 10.3 0 0 1 -5.056.223c-2.1-.529-4.74-2.126-5.423-6.708 0 0-.031-.207-.206-.207s-.2.205-.2.205c-.682 4.584-3.326 6.181-5.424 6.71a10.319 10.319 0 0 1 -5.059-.223 6.708 6.708 0 0 1 -2.588-1.664l-.231-.211c-.09-.079-.188-.17-.29-.261-.408-.369-1.019-.929-1.273-.775a.426.426 0 0 0 -.2.271c-.027.154.11.339.212.467a1.465 1.465 0 0 1 .098.152z" transform="translate(4.608 20.152)"/><path d="m13.49 67.817-.108-.424c-.269-1.056-.957-4.689 1.5-7.092l.278-.272.119.371a7.146 7.146 0 0 1 -1.492 7.1z" transform="translate(12.364 -3.035)"/><path d="m102.423 67.818-.3-.317a7.078 7.078 0 0 1 -1.488-7.1l.12-.368.276.272c2.455 2.4 1.768 6.036 1.5 7.091z" transform="translate(-31.953 -3.037)"/><path d="m9.666 80.045-.321-.222c-.588-.406-1.9-1.651-1.4-4.447l.07-.385.312.235c.546.41 1.773 1.663 1.389 4.431z" transform="translate(15.032 -10.642)"/><path d="m106.878 80.042-.053-.384c-.384-2.764.845-4.019 1.39-4.431l.314-.235.069.385c.505 2.8-.812 4.043-1.4 4.447z" transform="translate(-35.256 -10.642)"/><path d="m13.775 82.666-.111-.59a6.474 6.474 0 0 1 1.311-5.293l.327-.394.1.5a7.25 7.25 0 0 1 -1.302 5.275z" transform="translate(12.127 -11.353)"/><path d="m102.791 82.665-.328-.5a7.3 7.3 0 0 1 -1.3-5.27l.095-.508.327.4a6.49 6.49 0 0 1 1.316 5.292z" transform="translate(-32.372 -11.349)"/><path d="m7.191 89.031-.347-.125c-.685-.248-2.909-1.358-2.736-5.281l.019-.4.345.2c.73.428 2.454 1.789 2.693 5.237z" transform="translate(16.933 -14.829)"/><path d="m108.177 89.031.025-.368c.256-3.56 2.128-4.907 2.694-5.237l.344-.2.017.4c.175 3.919-2.048 5.033-2.732 5.281z" transform="translate(-35.981 -14.83)"/><path d="m12.356 95.713-.077-.41a6.325 6.325 0 0 1 1.52-5.377l.306-.335.106.441a5.46 5.46 0 0 1 -1.537 5.41z" transform="translate(12.825 -18.065)"/><path d="m103.94 95.717-.32-.275a5.463 5.463 0 0 1 -1.535-5.408l.105-.443.307.335a6.286 6.286 0 0 1 1.516 5.375z" transform="translate(-32.797 -18.065)"/><path d="m5.96 102.39-.375-.186c-.881-.435-3.743-2.123-3.578-5.554l.014-.3.289.078c.778.21 3.34 1.231 3.622 5.544z" transform="translate(18 -21.502)"/><path d="m108.507 102.39.029-.417c.288-4.314 2.846-5.334 3.624-5.544l.288-.078.015.3c.164 3.428-2.7 5.118-3.579 5.554z" transform="translate(-36.149 -21.502)"/><path d="m13.955 108.092-.117-.447a6.448 6.448 0 0 1 .931-5.654l.236-.287.165.333a5.1 5.1 0 0 1 -.916 5.7z" transform="translate(12.118 -24.223)"/><path d="m102.444 108.093-.3-.351a5.091 5.091 0 0 1 -.914-5.7l.166-.331.235.285a6.457 6.457 0 0 1 .929 5.654z" transform="translate(-32.198 -24.225)"/><path d="m8.785 116.567-.452-.164c-.978-.35-4.161-1.748-4.084-5.031l.006-.266.264.035c.635.079 2.811.672 4.124 4.965z" transform="translate(16.857 -29.003)"/><path d="m105.087 116.559.139-.458c1.314-4.278 3.492-4.878 4.126-4.96l.265-.035.006.267c.075 3.295-3.109 4.681-4.086 5.028z" transform="translate(-34.41 -29.003)"/><path d="m18.054 122.033-.232-.342a6.144 6.144 0 0 1 -.271-6.066l.148-.331.248.266c.507.541 2.028 2.584.29 6.1z" transform="translate(10.425 -31.132)"/><path d="m98.294 122.034-.183-.371c-1.748-3.529-.223-5.563.286-6.1l.247-.265.148.33a6.162 6.162 0 0 1 -.266 6.066z" transform="translate(-30.448 -31.133)"/><path d="m11.821 129.366-.432-.065a7.114 7.114 0 0 1 -5.3-3.9l-.209-.426.467.082a7.129 7.129 0 0 1 5.3 3.905z" transform="translate(16.025 -36.055)"/><path d="m100.608 129.366.176-.4a7.131 7.131 0 0 1 5.294-3.905l.467-.082-.21.426a7.114 7.114 0 0 1 -5.3 3.9z" transform="translate(-32.133 -36.055)"/><path d="m25.352 134.322-.323-.221a5.545 5.545 0 0 1 -2.26-5.835l.062-.327.291.163c.661.368 2.774 1.88 2.281 5.83z" transform="translate(7.505 -37.561)"/><path d="m90.282 134.322-.049-.391c-.494-3.95 1.624-5.462 2.284-5.83l.293-.163.061.33a5.551 5.551 0 0 1 -2.265 5.832z" transform="translate(-26.821 -37.561)"/><path d="m19.339 141.757a8.324 8.324 0 0 1 -6.293-3.22l-.287-.337.439-.059a8.014 8.014 0 0 1 .99-.061 6.03 6.03 0 0 1 5.668 3.319l.16.324-.361.024c-.084.006-.191.01-.316.01z" transform="translate(12.53 -42.717)"/><path d="m91.728 141.757c-.125 0-.232 0-.316-.008l-.359-.024.158-.324a6.024 6.024 0 0 1 5.664-3.319 7.351 7.351 0 0 1 .993.065l.438.058-.286.335a8.323 8.323 0 0 1 -6.292 3.217z" transform="translate(-27.275 -42.717)"/><path d="m35.878 145.7-.389-.236a7.732 7.732 0 0 1 -3.721-6.693v-.349l.325.125c.812.314 3.483 1.722 3.76 6.7z" transform="translate(2.866 -42.891)"/><path d="m78.434 145.7.026-.453c.275-4.983 2.949-6.385 3.763-6.7l.322-.125v.349a7.725 7.725 0 0 1 -3.722 6.693z" transform="translate(-20.859 -42.891)"/><path d="m28.653 153.775a7.411 7.411 0 0 1 -5.348-2.454l-.305-.315.429-.088a8.874 8.874 0 0 1 1.788-.183 6.95 6.95 0 0 1 5.428 2.361l.229.27-.335.114a5.854 5.854 0 0 1 -1.886.295z" transform="translate(7.323 -49.151)"/><path d="m81.763 153.775a5.911 5.911 0 0 1 -1.889-.294l-.337-.114.231-.27a6.966 6.966 0 0 1 5.432-2.361 8.842 8.842 0 0 1 1.785.183l.428.088-.306.315a7.4 7.4 0 0 1 -5.344 2.453z" transform="translate(-21.42 -49.151)"/><path d="m40.849 163.769a11.864 11.864 0 0 1 -6.127-1.851l-.411-.25.444-.18a7.3 7.3 0 0 1 2.739-.5 10.514 10.514 0 0 1 5.9 1.985l.406.276-.466.152a8.01 8.01 0 0 1 -2.485.368z" transform="translate(1.573 -54.364)"/><path d="m67.9 163.769a8 8 0 0 1 -2.486-.366l-.467-.152.406-.276a10.521 10.521 0 0 1 5.906-1.985 7.293 7.293 0 0 1 2.738.5l.443.18-.411.25a11.858 11.858 0 0 1 -6.129 1.849z" transform="translate(-14.003 -54.364)"/><path d="m49.963 156.685-.363-.095c-4.352-1.131-5.927-5.446-6.2-6.3l-.13-.406.416.1a8.029 8.029 0 0 1 6.212 6.33z" transform="translate(-2.982 -48.718)"/><path d="m61.693 156.685.062-.371a7.975 7.975 0 0 1 6.212-6.33l.417-.1-.131.406c-.388 1.2-1.98 5.2-6.2 6.3z" transform="translate(-12.348 -48.718)"/><path d="m57.915 171.973c-3.51 0-8.33-3.812-9.388-4.683-1.073.889-6.016 4.809-9.556 4.682l-.133-.007-.066-.116a1.751 1.751 0 0 1 -.256-1.088l.025-.149.147-.041c.786-.227 7.74-2.276 9.666-4.324l.174-.188.176.188c1.923 2.044 8.88 4.1 9.666 4.324l.144.041.026.146a1.731 1.731 0 0 1 -.259 1.1l-.069.11-.129.007z" transform="translate(-.557 -56.941)"/><path d="m27.717 43.608h4.369v42.78a30.364 30.364 0 0 1 -6.44-14.3 23.109 23.109 0 0 1 -.278-4.105c0-6.274 1.21-16.678 2.349-24.379" transform="translate(6.12 5.313)"/></g><path d="m68.554 67.987a23.044 23.044 0 0 1 -.282 4.1c-1.343 6.913-4.425 15.668-16.391 22.234a36.975 36.975 0 0 1 -7.157-5.034v-45.679h21.476c.436 2.955 2.355 16.36 2.355 24.379" fill="#fff" transform="translate(-3.721 5.313)"/><path d="m1.071 2.206 4.493-2.206c-.2 1.9-1.313 12.927-1.313 15.858 0 3.284.87 9.479 1.4 10.727l.035.087.1.007c.081.011 1.953.122 3.141-3.718a4.9 4.9 0 0 1 .71 2.728 6.336 6.336 0 0 1 -.719 3.029 12.207 12.207 0 0 1 -1.752.842c-.827.365-1.848.816-2.77 1.285a35.206 35.206 0 0 0 -3.468 2.115c-.354.237-.693.464-.81.518a2.4 2.4 0 0 1 -.01-1.526c.065-.287.19-.7.351-1.224a31.177 31.177 0 0 0 1.152-4.788c.364-2.6 1.033-18.841-.54-23.734" fill="#cfcfcf" transform="translate(47.586 55.512)"/><path d="m52.985 65.5a51.85 51.85 0 0 0 .087-5.264c-.3-.353-2.29-2.767-2.084-5.512a4.766 4.766 0 0 1 3.717-4.2c3.66-.719 7.6 2.495 8.359 3.152l3.2-3.8a17.863 17.863 0 0 0 -12.779-2.83 8.233 8.233 0 0 0 -6.42 5.618 10.136 10.136 0 0 0 .974 7.9 11.987 11.987 0 0 0 4.946 4.936zm12.17 3.384a23.114 23.114 0 0 0 -7.2-5.682 25.872 25.872 0 0 0 .053 5.058c.47.322 4.1 2.932 4.88 5.5a12.723 12.723 0 0 1 -.648 9.111 13.731 13.731 0 0 1 -4.7 5.111 14.406 14.406 0 0 1 -9.826 2.079 12.7 12.7 0 0 0 5.965 3.8c.686-.349 7.47-3.95 10.939-10.4 1.775-3.293 2.636-6.089 2.636-8.548a9.8 9.8 0 0 0 -2.099-6.025z" fill="#b3b3b3" transform="translate(-4.707 3.681)"/><path d="m56.062 1.153c.045-.138.117-.138.162 0l.587 1.805a.389.389 0 0 0 .345.25h1.9c.144 0 .167.069.051.154l-1.539 1.115a.39.39 0 0 0 -.131.407l.586 1.8c.044.139-.016.182-.133.1l-1.534-1.117a.392.392 0 0 0 -.426 0l-1.535 1.116c-.117.087-.176.043-.131-.1l.586-1.8a.387.387 0 0 0 -.132-.407l-1.534-1.114c-.117-.085-.1-.154.049-.154h1.9a.387.387 0 0 0 .345-.25z" fill="#b3b3b3" transform="translate(-7.984 26.95)"/><path d="m56.634 171.783a78.676 78.676 0 0 1 -15.294 1.633 78.676 78.676 0 0 1 -15.294-1.633l-2.056 8.552a88.253 88.253 0 0 0 17.35 1.854 88.237 88.237 0 0 0 17.35-1.854z" fill="#b3b3b3" transform="translate(6.82 -59.851)"/><path d="m21.584 167.523c.866.18 1.739.339 2.614.488l.261-1.14-7.8-1.789-1.796 7.418 4.411 1.011 1.482-6.167z" fill="#b3b3b3" transform="translate(11.46 -56.445)"/><path d="m87.886 167.349 1.482 6.165 4.411-1.01-1.791-7.422-7.805 1.789.262 1.14c.875-.149 1.748-.308 2.614-.488z" fill="#b3b3b3" transform="translate(-23.783 -56.445)"/><path d="m47.707 179.535-.139-.535a1.406 1.406 0 0 0 .518-.273 1.649 1.649 0 0 0 .353-.4h.079l.48.3-.367 5.4-.75-.052.309-4.556z" fill="#fff" transform="translate(-5.167 -63.177)"/><path d="m53 181.37a.633.633 0 0 1 -.522-.706l.037-1.125c.022-.648.336-.961.943-.942l.467.017c.606.019.9.354.877 1l-.038 1.132a.624.624 0 0 1 -.522.672.665.665 0 0 1 .531.7l-.042 1.243q-.032.965-.941.934l-.578-.019q-.908-.03-.877-.994l.042-1.252q.017-.522.623-.66zm.424 2.224.2.007q.341.01.354-.4l.035-1.06c.009-.27-.131-.409-.421-.418s-.448.122-.457.38l-.036 1.068q-.013.411.326.423zm-.154-3.893-.031.94c-.01.275.1.415.326.423h.087a.366.366 0 0 0 .354-.392l.031-.95c.009-.274-.1-.415-.326-.422h-.087c-.224-.008-.344.127-.353.4z" fill="#fff" transform="translate(-7.59 -63.315)"/><path d="m60.1 182.969.005.23c.006.275.122.41.35.4h.11c.2 0 .3-.119.293-.34l-.031-1.376-.468.327h-.174q-.911.021-.934-.992l-.034-1.59q-.023-1 .887-1.016l.5-.012q.91-.021.932.977l.082 3.672q.022 1.012-.888 1.033l-.451.009q-.909.021-.933-.992l-.006-.316zm.719-1.458-.041-1.882c0-.228-.131-.337-.38-.331h-.087a.3.3 0 0 0 -.333.348l.033 1.472q.009.411.348.4z" fill="#fff" transform="translate(-11.088 -63.318)"/><path d="m66.587 181.194a.635.635 0 0 1 -.587-.654l-.069-1.122q-.059-.973.849-1.027l.466-.03q.908-.055.968.916l.07 1.13a.621.621 0 0 1 -.455.717.667.667 0 0 1 .594.647l.076 1.239q.06.963-.848 1.021l-.577.035q-.91.055-.968-.908l-.077-1.249a.68.68 0 0 1 .558-.715zm.111-1.688.058.939c.018.274.139.4.365.389l.087-.005a.365.365 0 0 0 .314-.423l-.058-.947c-.017-.275-.139-.4-.365-.391l-.088.005c-.224.014-.33.159-.311.433zm.524 3.859.2-.011q.34-.021.315-.432l-.066-1.06q-.024-.4-.459-.376c-.294.024-.435.166-.418.423l.065 1.065c.014.276.136.407.362.391z" fill="#fff" transform="translate(-14.501 -63.194)"/></svg>