<svg enable-background="new 0 0 274 150" viewBox="0 0 274 150" xmlns="http://www.w3.org/2000/svg"><path d="m183.7 43c-9.2 0-17.5 3.8-23.5 10-5.9-6.2-14.2-10-23.4-10s-17.6 3.9-23.5 10c-5.9-6.2-14.2-10-23.5-10-17.9 0-32.5 14.5-32.5 32.5 0 17.9 14.6 32.5 32.5 32.5 9.2 0 17.6-3.9 23.5-10 5.9 6.2 14.2 10 23.5 10 9.2 0 17.5-3.9 23.4-10 5.9 6.2 14.2 10 23.5 10 18 0 32.5-14.6 32.5-32.5 0-18-14.5-32.5-32.5-32.5m-76.7 26.1-12.7 19.6c-1 1.5-2.7 2.4-4.4 2.4s-3.4-.8-4.4-2.4l-12.8-19.6c-1.6-2.4-.9-5.7 1.5-7.2 2.4-1.6 5.7-.9 7.3 1.5l8.4 12.9 8.4-12.9c1.6-2.4 4.8-3.1 7.3-1.5 2.3 1.5 3 4.8 1.4 7.2m29.8 20.8c-8 0-14.4-6.5-14.4-14.4 0-8 6.5-14.4 14.4-14.4s14.4 6.5 14.4 14.4-6.4 14.4-14.4 14.4m46.9 0c-8 0-14.4-6.5-14.4-14.4 0-8 6.5-14.4 14.4-14.4 8 0 14.4 6.5 14.4 14.4s-6.4 14.4-14.4 14.4" fill="#b3b3b3"/></svg>