<svg enable-background="new 0 0 274 150" viewBox="0 0 274 150" xmlns="http://www.w3.org/2000/svg" xmlns:xlink="http://www.w3.org/1999/xlink"><defs><clipPath id="a"><path d="m45.8 50.4h50v50h-50z"/></clipPath><clipPath id="b"><use xlink:href="#g"/></clipPath><clipPath id="c"><path d="m74 56.3c1.4.6 6.8 3.6 7.5 4.5-2.8.4-8.2 1.7-11.1 3.2l-.1.4c3.2-.7 7.7-1.1 10.8-1.2-1.2 1.7-1.9 2.5-3.7 4.4l-.1.3c3.3-2 4.3-2.2 7.4-4 1.2 1.7 1.5 5.7 1.5 8.9 1-2 2.3-9.5 1.7-10.9 2-1.4 2.3-2.5 2.3-2.5-1.9.1-2.9.2-3.9.5-2.4-1.5-7.9-3.4-12.1-3.9z"/></clipPath><clipPath id="d"><path d="m53.5 79.8c-.3 2.5-.4 4.3 0 6.3-1 .3-1.9.3-2.7.7l-.1.4c1.3.8 2.3 1.5 3.9 2.1.8 1.7 1.6 2.8 2.9 4.1l.1-.4c-.2-.9-.5-1.7-.4-2.8 1.7.5 3.1.7 4.9.8l.1-.4c-1.7-.7-3.3-1.2-4.6-2.4.4-1.2.9-2 1.7-3.2l.1-.4c-1.4.2-2.7.7-3.9.9-.9-1.7-1.3-4-1.8-6.2z"/></clipPath><clipPath id="e"><path d="m61.9 68.4s-1-.1-2.8-.1c-1.5.1-3.7.2-4.7.5l-.1.4c1.7.1 4 .5 4.9 1.5 0 0-2.6 2.3-5.2 7.4 0 0 4.7-4.4 6.6-5.5 0 0 1 3.5 1.8 5.2l.1-.4c.2-1.2.7-4.2 1.5-6 0 0 .3-.2 1.8-.4 1.5-.1 3.6-.2 7.6.5l.1-.4c-.9-.5-4.5-2.1-8.4-2.6h.1c.5-1.5 1.2-2.7 1.2-2.7-.6.2-3 1.3-4.5 2.6"/></clipPath><clipPath id="f"><path d="m71.6 89.8c-.1-.7-.1-1.2-.1-2-.8 1.1-1.5 2-2.4 3-.9.3-2 .2-3 .2-.4 0-.7 0-1.1 0l-.1.4c.9.4 1.8.7 2.8.9-.8.7-1.8 1.2-2.5 1.7l-.2.4c1.5-.4 3.6-1 5.2-2 .8 0 1.5 0 2.1-.1l.1-.4c-.1-.4-.4-.6-.5-1.1 1.5-1.1 2.5-2.1 3.6-3.3l.1-.4c-1.2 1-2.6 2.1-4 2.7"/></clipPath><path id="g" d="m49.7 51.3c-.9 0-1.6.8-1.7 2 0 0-1.2 6.6-1.2 20.5s1.2 23 1.2 23c.1 1.1.8 2 1.7 2h43.3c.9 0 1.7-.8 1.7-2 0 0-.5-10.7-.5-21.1s.5-22.4.5-22.4c0-1.1-.8-2-1.7-2z"/></defs><path d="m45.8 50.4h50v50h-50z" fill="#b3b3b3"/><path clip-path="url(#a)" d="m45.8 50.4h50v50h-50z" fill="#b3b3b3"/><use fill="#b3b3b3" xlink:href="#g"/><path clip-path="url(#b)" d="m46.7 51.3h48v47.5h-48z" fill="#b3b3b3"/><path clip-path="url(#c)" d="m70.3 56.1h19.9v16.8h-19.9z" fill="#b3b3b3"/><path clip-path="url(#d)" d="m50.6 79.4h11.6v13.9h-11.6z" fill="#b3b3b3"/><path clip-path="url(#e)" d="m54 65.9h19.7v12.1h-19.7z" fill="#b3b3b3"/><path clip-path="url(#f)" d="m64.8 87.2h10.8v7.1h-10.8z" fill="#b3b3b3"/><path d="m84.7 63.6c-3.1 1.8-4 2-7.4 4 2-2.1 2.6-3 3.9-4.8-3.1.1-7.6.5-10.8 1.2 2.8-1.5 8.3-3.1 11.3-3.6-.7-.9-6.2-3.9-7.5-4.5 4.4.4 9.7 2 12.2 3.6 1-.3 2-.4 3.9-.5-.5.8-.5 1.3-2.3 2.5.5 1.4-.7 8.9-1.7 10.9-.1-3.1-.4-7-1.6-8.8" fill="#fff"/><path d="m62.2 90.6c-1.7-.7-3.1-1.5-4.4-2.8.4-1.2.9-2 1.7-3.2-1.5.2-2.5.4-3.7.6-1-1.7-1.5-3.5-2-5.8-.3 2.5-.4 4.3 0 6.3-1.2.3-2 .6-2.9 1 1.3.8 2.4 1.5 3.9 2.1.8 1.7 1.6 2.8 2.9 4.1-.3-1.1-.4-2-.3-3.1 1.5.5 2.9.8 4.8.8" fill="#fff"/><path d="m66.8 65.6c-.6.7-1.2 2-1.4 2.7 4.6.7 8.2 3 8.2 3-4-.7-6.1-.7-7.6-.5s-1.8.2-1.8.2c-1.1 2.3-1.7 6.4-1.7 6.4-.7-1.7-1.7-5.2-1.7-5.2-2 1.1-6.6 5.5-6.6 5.5 2.5-5.1 5.2-7.4 5.2-7.4-.9-.9-3.2-1.4-4.9-1.5.9-.4 3.1-.8 4.9-.9 1.5-.1 2.6.1 2.6.1 1.6-1.2 4-2.3 4.8-2.4" fill="#fff"/><path d="m71.6 87.5c-.8 1.1-1.5 2-2.4 3-1.5.4-2.8.6-4.3.6.9.5 1.8.7 2.8.9-.9.9-1.7 1.5-2.7 2.1 1.5-.4 3.6-1 5.2-2 .8 0 1.5 0 2.1-.1-.1-.4-.2-.8-.4-1.4 1.5-1.1 2.5-2.1 3.7-3.3-1.3.9-2.4 1.5-3.9 2.3 0-.8-.1-1.4-.1-2.1" fill="#fff"/><g fill="#b3b3b3"><path d="m108.8 75.9h118.3v1.7h-118.3z"/><path d="m108.9 61.1c.1 1.2.1 4.3.1 5.4 0 1 0 4.4-.1 5.9v.1h5.4c2.6 0 5.4-.8 5.4-3.1 0-1.5-1.1-2.5-3.1-3.1 1.5-.4 2.5-1.4 2.5-2.5 0-1.9-2.2-2.6-4.2-2.7zm4.2 1.2c2.3 0 3.1.4 3.1 1.7 0 .3-.1.6-.3.9-.4.5-1.3.8-2.3.7h-.1l-.6 1.6h.7c1.2-.1 2.3.4 2.8 1 .3.3.4.7.4 1 0 1.3-1.1 2-3.3 2-.4 0-.9 0-1.4 0-.1-1.7-.1-4-.1-4.7 0-.8 0-2.6.1-4.1.2-.1.5-.1 1-.1"/><path d="m132 61h-2.6l.1 2.9c.1 1.5.1 2.9.2 4.4-.1-.4-.3-.7-1.1-1.8 0-.1-2.8-4.2-3.6-5.4h-3.1v.1c.1 1.2.1 4.2.1 5.4 0 1 0 4.4-.1 5.9v.1h2.7v-.1c-.1-2.8-.1-5.7-.1-8.4.1.4.2.7.7 1.2.1.1 4.7 6.8 4.9 7.2v.1h2.2v-.1c-.1-1.5-.1-4.9-.1-5.9 0-1.1.1-4.1.1-5.4v-.2z"/><path d="m135.1 61.1c.1 1.2.1 4.3.1 5.4 0 1 0 4.4-.1 5.9v.1h3.2v-.1c-.1-1.1-.1-3.1-.1-4.7h.6.4c4.2 0 6.3-1.2 6.3-3.5 0-2.7-2.9-3.3-5.3-3.3h-5zm3.9 1.3c1.5 0 2.5.3 3.1.9.2.3.4.7.4 1 0 1.7-1.9 2-3.4 2h-.7s-.1 0-.3-.1c0-.4 0-.9 0-1.5 0-.7 0-1.6 0-2.4.3.2.7.1.9.1"/><path d="m151.6 61.1c.1 1.2.1 4.3.1 5.4 0 1 0 4.4-.1 5.9v.1h3.2v-.1c-.1-1.1-.1-3.1-.1-4.7h.6.4c4.2 0 6.3-1.2 6.3-3.5 0-2.7-2.9-3.3-5.3-3.3h-5zm4 1.3c1.5 0 2.5.3 3.1.9.2.3.4.7.4 1 0 1.7-1.9 2-3.4 2h-.7s-.1 0-.2-.1c0-.4 0-.9 0-1.5 0-.7 0-1.6.1-2.4-.1.2.3.1.7.1"/><path d="m166.3 61c-.7 1.7-4.5 10.1-5.1 11.4l-.1.1h2.8v-.1c.2-.8.6-1.7.9-2.6h2.3 1.9.4c.5 1.2.9 2.2 1 2.6v.1h3.2l-5.2-11.5h-.1zm.8 3.4c.3.5.9 2.1 1.7 3.9-.1 0-.2 0-.2 0h-1.4s-1.5 0-1.7 0c.4-1.5 1.1-2.8 1.6-3.9"/><path d="m174.8 61.1c.1 1.2.1 4.2.1 5.4 0 1 0 4.4-.1 5.9v.1h3.2v-.1c-.1-1.5-.1-4.9-.1-5.9 0-.8 0-2.6.1-4 .3 0 .7-.1.9-.1 1.5 0 2.5.3 3.1.9.2.3.4.7.4 1 0 1.3-1.2 2-2.4 2-.4 0-.7 0-.7 0l-.2-.1.1.2c1.1 1.7 2.8 4.6 3.6 6v.1h3.4l-.1-.1c-.1-.2-2.4-3.5-3.3-4.9 0 0 0-.1-.1-.1 1.7-.5 2.6-1.5 2.6-3.1 0-2.7-2.9-3.3-5.3-3.3z"/><path d="m190.6 61h-3.1v.1c.1 1.2.1 4.3.1 5.4 0 1 0 4.4-.1 5.9v.1h3.2v-.1c-.1-1.5-.1-4.9-.1-5.9 0-1.1.1-4.1.1-5.4v-.1z"/><path d="m193.6 61.1c.1 1.2.1 4.3.1 5.4 0 1 0 4.4-.1 5.9v.1h5.4c2.6 0 5.4-.8 5.4-3.1 0-1.5-1.1-2.5-3.1-3.1 1.5-.4 2.5-1.4 2.5-2.5 0-1.9-2.2-2.6-4.2-2.7zm4.1 1.2c2.3 0 3.1.4 3.1 1.7 0 .3-.1.6-.3.9-.4.5-1.3.8-2.3.7h-.1l-.6 1.6h.7c1.2-.1 2.3.4 2.8 1 .3.3.4.7.4 1 0 1.3-1.1 2-3.3 2-.4 0-.9 0-1.4 0-.1-1.7-.1-4-.1-4.7 0-.8 0-2.6.1-4.1.2-.1.6-.1 1-.1"/><path d="m212.3 61h-2.2v.1c-.7 1.7-4.7 10.6-5 11.4l-.1.1h2.8v-.1c.2-.8.6-1.7.9-2.6h2.3 1.9.4c.5 1.2.9 2.2 1 2.6v.1h3.2zm-1.4 3.4c.3.5.9 2.1 1.7 3.9-.1 0-.2 0-.2 0h-1.4s-1.5 0-1.7 0c.5-1.5 1.1-2.8 1.6-3.9"/><path d="m218.3 64c0 2 2 2.8 3.9 3.6 1.4.6 2.8 1.2 2.8 2.1 0 .3-.1.5-.2.7-.4.4-1 .6-2.1.5s-2.3-.4-3.6-1l-.6-.3v.4 2l.4.1.2.1c.7.1 2 .4 3.3.4 3.4 0 5.4-1.3 5.4-3.6 0-2.1-2.1-2.9-3.9-3.6-1.4-.5-2.8-1.1-2.8-2 0-.3 0-1 1.7-1 1.3 0 2.5.5 3.3.8l.7.3v-.4-2.1l-.7-.1c-.7-.1-1.7-.4-2.9-.4-2.9.1-4.9 1.4-4.9 3.5"/><path d="m146 80.7v1.6c-1.5-.1-4.1-.1-4.1-.1-.2 0-.5 0-.7 0v2.7l3.3-.1v1.5h-3.3v.2c0 1.2.1 2.8.1 4h-3.3c.1-1.5.1-4.3.1-5.2s0-3.6-.1-4.7z"/><path d="m152.9 90.8c-3.1 0-5.4-2.1-5.4-5.2s2.3-5.2 5.4-5.2 5.4 2.1 5.4 5.2-2.4 5.2-5.4 5.2m0-9.1c-1.5 0-2.3 1.4-2.3 3.9s.9 3.9 2.3 3.9 2.3-1.4 2.3-3.9-.9-3.9-2.3-3.9"/><path d="m165.4 80.7c2.2 0 4.7.8 4.7 3.1 0 1.2-.9 2.1-2.3 2.7.3.5 2.7 3.6 3.1 4.1h-3.5c-.7-1.2-1.8-3.2-3-4.9 1.4.1 2.6-.5 2.6-1.8s-1.5-1.7-2.3-1.7c-.4 0-.9 0-1.2 0-.1 1.2-.1 2.6-.1 3.3 0 .9 0 3.6.1 5.2h-3.3c.1-1.5.2-3.2.2-5.2 0-1.7 0-3.6-.1-4.7z"/><path d="m181 80.7v1.6c-1.5-.1-2-.2-3.1-.2-.1 1.2-.1 2.7-.1 3.3 0 .9 0 3.6.2 5.2h-3.3c.1-1.5.1-4.4.1-5.2 0-.7-.1-2.3-.1-3.3-1.2 0-1.7.1-3.2.2v-1.6z"/><path d="m186.5 80.7c-.1 1.1-.1 3.8-.1 4.7s0 3.8.1 5.2h-3.3c.1-1.5.2-4.3.2-5.2s-.1-3.6-.1-4.7z"/><path d="m193.5 80.4c1.2 0 2.5.2 3.3.4v2.5c-1.1-.7-2.1-1.2-3.6-1.2-1.1 0-1.2.4-1.2.8 0 1.7 5.6 1.7 5.6 4.7 0 2-1.8 3.1-4.8 3.1-1.4 0-2.6-.3-3.5-.6v-2.4c2 .9 3.1 1.3 4.1 1.3.8 0 1.3-.4 1.3-1 0-1.9-5.6-1.7-5.6-4.9.1-1.6 1.8-2.7 4.4-2.7"/></g></svg>