<svg enable-background="new 0 0 274 150" viewBox="0 0 274 150" xmlns="http://www.w3.org/2000/svg"><g fill="#b3b3b3"><path d="m137 20c-20.2 0-36.7 16.5-36.7 36.7v36.6c0 20.2 16.5 36.7 36.7 36.7s36.7-16.5 36.7-36.7v-36.6c0-20.2-16.5-36.7-36.7-36.7zm35.1 73.3c0 19.4-15.7 35.1-35.1 35.1s-35.1-15.8-35.1-35.1v-36.6c0-19.4 15.8-35.1 35.1-35.1s35.1 15.8 35.1 35.1z"/><path d="m124.9 44.1v12.3c0 6.2 4.7 11.4 10.9 12.1v-36.4c-6.2.6-10.9 5.8-10.9 12z"/><path d="m138.1 68.5c6.2-.6 11-5.8 11-12.1v-.1h-11z"/><path d="m138.1 32.1v12.1c0 3 2.5 5.5 5.5 5.5s5.5-2.5 5.5-5.5v-.1c0-6.2-4.8-11.4-11-12z"/><path d="m123.1 112.5.4.3-2.1 3.7-.4-.3zm-.8 1.8 1 .6c.1.1.2.1.3.1s.2 0 .3-.1.2-.2.2-.3l.1-.2c.1-.1.1-.2.1-.3s0-.2-.1-.3-.1-.2-.2-.2l-1-.6.2-.4.9.5c.2.1.4.2.5.4s.2.3.2.5-.1.4-.2.6l-.1.2c-.1.2-.3.3-.4.4-.2.1-.4.1-.5.1-.2 0-.4-.1-.6-.2l-.9-.5zm.7.8.5.1-.3 2.3-.5-.3z"/><path d="m125.8 118.5c-.1-.2-.2-.4-.3-.6 0-.2 0-.5.1-.7l.6-1.6c.1-.2.2-.4.4-.6.2-.1.4-.2.6-.3.2 0 .5 0 .7.1s.4.2.6.4c.1.2.2.4.3.6 0 .2 0 .5-.1.7l-.6 1.6c-.1.2-.2.4-.4.6-.2.1-.4.2-.6.3-.5.1-1-.1-1.3-.5zm1.1 0c.1 0 .3-.1.4-.2s.2-.2.2-.4l.6-1.6c.1-.1.1-.3.1-.4s-.1-.3-.2-.4-.2-.2-.4-.2c-.1-.1-.3-.1-.4-.1s-.3.1-.4.2-.2.2-.2.4l-.6 1.6c-.1.1-.1.3-.1.4s.1.3.2.4.2.2.4.2c.2.1.3.2.4.1z"/><path d="m131.5 115.9.5.1.4 4.5-.5-.1-.2-3.8-1.7 3.4-.5-.1zm-1.2 2.7 1.8.4-.1.5-1.8-.4z"/><path d="m134.8 120.7c-.2-.1-.3-.2-.4-.3-.1-.2-.2-.3-.2-.5l.5-.1c0 .2.1.4.2.5s.3.2.5.2.4 0 .6-.1.3-.3.3-.5v-.2c0-.1 0-.2-.1-.4-.1-.1-.1-.2-.2-.2-.1-.1-.3-.1-.4-.2h-.1c-.2-.1-.4-.2-.5-.3s-.3-.2-.3-.4c-.1-.2-.1-.4-.1-.6v-.1c0-.2.1-.4.2-.6s.3-.3.5-.3c.2-.1.5-.1.7 0 .2 0 .4.1.5.2s.3.2.3.3c.1.2.2.3.2.5l-.5.1c0-.2-.1-.3-.2-.5-.1-.1-.3-.2-.4-.2-.2 0-.4 0-.6.1-.1.1-.2.3-.3.4v.1c0 .1 0 .2.1.4.1.1.2.2.3.2.1.1.3.2.4.2.2.1.3.2.5.3.1.1.2.2.3.4s.1.4.1.6v.2c0 .2-.1.4-.3.6-.1.2-.3.3-.5.3-.2.1-.5.1-.7 0 0 0-.2 0-.4-.1z"/><path d="m138.1 116.5 2.5-.2v.5l-2.5.2zm1 .3h.5l.4 4h-.5z"/><path d="m141.8 116.1.5-.1 1 4.2-.5.1zm.3-.1 2-.5.1.5-2 .5zm.5 1.9 1.7-.4.1.5-1.7.4zm.4 1.9 2-.5.1.5-2 .5z"/><path d="m145.5 115.1.5-.2 1.6 4-.5.2zm1 1.8 1-.4c.1 0 .2-.1.3-.2s.1-.2.1-.3 0-.2-.1-.3l-.1-.2c0-.1-.1-.2-.2-.3s-.2-.1-.3-.1-.2 0-.3 0l-1 .4-.2-.4 1-.4c.2-.1.4-.1.6-.1s.4.1.5.2c.2.1.3.3.3.5l.1.2c.1.2.1.4.1.6s-.1.4-.2.5c-.1.2-.3.3-.5.4l-1 .4zm1.1-.1.4-.3 1.6 1.6-.5.2z"/><path d="m151.5 115 .9 1.5-.4.3-.9-1.5-2.2-1.6.5-.3 1.7 1.3-.3-2.1.5-.3z"/><g stroke="#b3b3b3" stroke-miterlimit="10" stroke-width=".3"><path d="m112 87.9c-.5-.6-.8-1.3-.8-2.1v-5.2c0-.8.2-1.5.8-2.1.6-.5 1.3-.8 2.1-.8s1.5.2 2.1.8c.5.5.8 1.3.8 2.1v.2c0 .1 0 .1-.1.1 0 0-.1.1-.1.1l-1.4.1c-.1 0-.2 0-.2-.1v-.4c0-.3-.1-.6-.3-.9-.2-.2-.5-.3-.8-.3s-.6.1-.8.3-.3.5-.3.9v5.4c0 .3.1.6.3.9.2.2.5.3.8.3s.6-.1.8-.3.3-.5.3-.9v-.4s0-.1.1-.1c0 0 .1-.1.1-.1l1.4.1c.1 0 .2.1.2.2v.2c0 .8-.2 1.5-.8 2.1-.6.5-1.3.8-2.1.8-.8-.1-1.6-.4-2.1-.9z"/><path d="m123 78s.1-.1.1-.1h1.4c.1 0 .2.1.2.2v10.2c0 .1-.1.2-.2.2h-1.4s-.1 0-.1-.1c0 0-.1-.1-.1-.1v-4.3s0-.1-.1-.1h-1.9s-.1 0-.1.1v4.3s0 .1-.1.1c0 0-.1.1-.1.1h-1.4c-.1 0-.2-.1-.2-.2v-10.2c0-.1.1-.2.2-.2h1.4s.1 0 .1.1c0 0 .1.1.1.1v4.3s0 .1.1.1h1.9s.1 0 .1-.1v-4.3s0-.1.1-.1z"/><path d="m131.4 88.4-.3-1.6c0-.1 0-.1-.1-.1h-2.2c-.1 0-.1 0-.1.1l-.3 1.6c0 .1-.1.2-.2.2h-1.4c-.1 0-.2-.1-.2-.2l2.2-10.2c0-.1.1-.2.2-.2h1.6c.1 0 .2.1.2.2l2.2 10.2v.1c0 .1-.1.1-.2.1h-1.4c.1-.1 0-.1 0-.2zm-2.3-3.1h1.7c.1 0 .1 0 .1-.1l-.8-4.6-1 4.7c-.1 0 0 0 0 0z"/><path d="m139.2 88.4-1.3-4.4s0-.1-.1-.1h-.8s-.1 0-.1.1v4.3c0 .1-.1.2-.2.2h-1.4s-.1 0-.1-.1c0 0-.1-.1-.1-.1v-10.2s0-.1.1-.1c0 0 .1-.1.1-.1h2.9c.5 0 1 .1 1.4.4s.7.6 1 1.1c.2.5.4 1.1.3 1.6 0 .6-.1 1.1-.4 1.6-.2.4-.6.8-1 1 0 0-.1 0 0 .1l1.5 4.6v.1c0 .1-.1.1-.2.1h-1.5s-.1 0-.1-.1zm-2.2-8.9v3s0 .1.1.1h.9c.3 0 .7-.2.9-.4.2-.3.4-.7.3-1.1 0-.4-.1-.8-.3-1.2-.2-.3-.5-.4-.9-.4h-1c0-.1 0 0 0 0z"/><path d="m143 88.5s-.1-.1-.1-.1v-10.3s0-.1.1-.1c0 0 .1-.1.1-.1h1.4c.1 0 .2.1.2.2v8.8c0 .1 0 .1.1.1h3.3c.1 0 .2.1.2.2v1.2s0 .1-.1.1c0 0-.1.1-.1.1h-4.9c-.1-.1-.2-.1-.2-.1z"/><path d="m155.3 79.4s-.1.1-.1.1h-3.3s-.1 0-.1.1v2.9s0 .1.1.1h1.9c.1 0 .2.1.2.2v1.2c0 .1-.1.2-.2.2h-1.9s-.1 0-.1.1v2.9s0 .1.1.1h3.3s.1 0 .1.1c0 0 .1.1.1.1v1.2c0 .1-.1.2-.2.2h-4.9c-.1 0-.2-.1-.2-.2v-10.6c0-.1.1-.2.2-.2h4.9c.1 0 .2.1.2.2v1.2c-.1 0-.1 0-.1.1z"/><path d="m158 87.9c-.5-.5-.8-1.2-.8-2v-.4s0-.1.1-.1c0 0 .1-.1.1-.1h1.4c.1 0 .2.1.2.2v.3c0 .3.1.7.3 1 .2.2.5.4.8.4s.6-.1.8-.3c.2-.3.3-.6.3-.9 0-.2-.1-.5-.2-.7s-.3-.4-.5-.5c-.2-.2-.5-.4-1-.7-.4-.3-.8-.6-1.2-1-.3-.3-.6-.6-.8-1s-.3-.9-.3-1.4c0-.7.2-1.5.8-2 .5-.5 1.3-.8 2-.7.8 0 1.5.2 2 .8s.8 1.3.8 2.1v.1s0 .1-.1.1c0 0-.1.1-.1.1h-1.4c-.1 0-.2-.1-.2-.2v-.4c0-.3-.1-.7-.3-.9s-.5-.4-.8-.4-.5.1-.7.3c-.2.3-.3.6-.3.9s.1.7.3.9c.4.4.8.7 1.2 1 .6.5 1.1.8 1.4 1.1s.5.6.7.9c.2.4.3.8.3 1.2 0 .8-.2 1.5-.8 2.1-1.2 1.2-2.9 1.2-4 .2z"/><path d="m111.6 103.5s-.1-.1-.1-.1v-10.3s0-.1.1-.1c0 0 .1-.1.1-.1h1.4s.1 0 .1.1c0 0 .1.1.1.1v8.8s0 .1.1.1h3.3s.1 0 .1.1c0 0 .1.1.1.1v1.2s0 .1-.1.1c0 0-.1.1-.1.1h-4.9c-.1-.1-.2-.1-.2-.1z"/><path d="m118.7 103.5s-.1-.1-.1-.1v-10.3c0-.1.1-.2.2-.2h1.4c.1 0 .2.1.2.2v10.2c0 .1-.1.2-.2.2h-1.4c-.1 0-.1 0-.1 0z"/><path d="m128 94.4s-.1.1-.1.1h-3.3s-.1 0-.1.1v2.9s0 .1.1.1h1.9c.1 0 .2.1.2.2v1.2c0 .1-.1.2-.2.2h-1.9s-.1 0-.1.1v2.9s0 .1.1.1h3.3s.1 0 .1.1c0 0 .1.1.1.1v1.2s0 .1-.1.1c0 0-.1.1-.1.1h-4.9s-.1 0-.1-.1c0 0-.1-.1-.1-.1v-10.6s0-.1.1-.1c0 0 .1-.1.1-.1h4.9s.1 0 .1.1c0 0 .1.1.1.1v1.2s-.1 0-.1.1z"/><path d="m130.7 102.9c-.5-.5-.8-1.3-.8-2v-5.4c0-.7.2-1.5.8-2s1.3-.8 2.1-.8 1.5.2 2.1.8c.5.5.8 1.3.8 2v.6c0 .1-.1.2-.2.2h-1.4s-.1 0-.1-.1c0 0-.1-.1-.1-.1v-.6c0-.3-.1-.6-.3-.9-.2-.2-.5-.3-.8-.3s-.6.1-.8.3-.3.6-.3.9v5.4c0 .3.1.6.3.9.2.2.5.3.8.3s.6-.1.8-.3.3-.6.3-.9v-1.5s0-.1-.1-.1h-.8s-.1 0-.1-.1c0 0-.1-.1-.1-.1v-1.1c0-.1.1-.2.2-.2h2.6s.1 0 .1.1c0 0 .1.1.1.1v2.8c0 .7-.3 1.5-.8 2-.6.5-1.3.8-2.1.8-.9.1-1.6-.2-2.2-.7z"/><path d="m143.1 94.4s-.1.1-.1.1h-3.3s-.1 0-.1.1v2.9s0 .1.1.1h1.9c.1 0 .2.1.2.2v1.2c0 .1-.1.2-.2.2h-1.9s-.1 0-.1.1v2.9s0 .1.1.1h3.3s.1 0 .1.1c0 0 .1.1.1.1v1.2s0 .1-.1.1c0 0-.1.1-.1.1h-5s-.1 0-.1-.1c0 0-.1-.1-.1-.1v-10.6s0-.1.1-.1c0 0 .1-.1.1-.1h4.9s.1 0 .1.1c0 0 .1.1.1.1v1.2z"/><path d="m145.8 102.8c-.5-.6-.8-1.3-.8-2.1v-5.1c0-.8.3-1.5.8-2.1 1.2-1.1 3-1.1 4.2 0 .6.6.8 1.3.8 2.1v5.1c0 .8-.3 1.5-.8 2.1-1.2 1.1-3 1.1-4.2 0zm3-1c.2-.3.3-.6.3-.9v-5.2c0-.3-.1-.7-.3-.9s-.5-.4-.8-.4-.6.1-.8.4-.3.6-.3.9v5.2c0 .3.1.7.3.9s.5.4.8.4c.2-.1.5-.2.8-.4z"/><path d="m153.1 103.5s-.1-.1-.1-.1v-10.3s0-.1.1-.1c0 0 .1-.1.1-.1h1.4s.1 0 .1.1c0 0 .1.1.1.1v10.2s0 .1-.1.1c0 0-.1.1-.1.1h-1.4z"/><path d="m157.8 102.9c-.5-.5-.8-1.2-.8-2v-.4s0-.1.1-.1c0 0 .1-.1.1-.1h1.4s.1 0 .1.1c0 0 .1.1.1.1v.3c0 .3.1.7.3 1 .2.2.5.4.8.4s.6-.1.8-.3c.2-.3.3-.6.3-.9 0-.2-.1-.5-.2-.7s-.3-.4-.5-.6-.5-.4-1-.7c-.4-.3-.8-.6-1.2-1-.3-.3-.6-.6-.8-1s-.3-.9-.3-1.4c0-.7.2-1.5.8-2 .5-.5 1.3-.8 2-.7.8 0 1.5.2 2 .8s.8 1.3.8 2.1v.2c0 .1-.1.2-.2.2h-1.4s-.1 0-.1-.1c0 0-.1-.1-.1-.1v-.4c0-.3-.1-.7-.3-.9s-.5-.4-.8-.4-.5.1-.7.3c-.2.3-.3.6-.3.9s.1.7.3.9c.4.4.8.7 1.2 1 .6.5 1.1.8 1.4 1.1s.5.6.7.9c.2.4.3.8.3 1.2 0 .8-.2 1.5-.8 2.1-1.1 1.2-2.9 1.2-4 .2z"/></g><path d="m124 93.1s0-.1 0-.2l.9-1.6c0-.1.1-.1.2-.1h1.2c.1 0 .1 0 .2.1v.2l-1.2 1.7c-.1.1-.1.1-.2.1h-.9c-.1-.1-.1-.1-.2-.2z"/></g></svg>