<svg height="150" viewBox="0 0 274 150" width="274" xmlns="http://www.w3.org/2000/svg"><path d="m0 0h274v150h-274z" fill="none"/><path d="m103.077 29.717v10.183c0 .85 1.416 1.162 2.663 1.371v-11.515a2.339 2.339 0 0 1 -2.663-.04zm1.358-.415a1.636 1.636 0 0 0 1.565-1.702c0-.939-.7-2.76-1.565-2.76s-1.566 1.822-1.566 2.76a1.636 1.636 0 0 0 1.567 1.7zm-5.952 19.275v5.129h4.966a29.272 29.272 0 0 0 7.221-.949v-6.248h1.241a7.859 7.859 0 0 0 -5.8-5h-3.129a7.815 7.815 0 0 0 -5.751 4.9h8.107s-6.589.501-6.855 2.168zm17.523 6.781h-23.043v4.724h19.237c4.547 0 3.806-4.724 3.806-4.724zm2.313 5.892h-28.847a2.487 2.487 0 0 0 1.568 2.107v21.158s.224 6.018-3.935 9.836a52.9 52.9 0 0 0 8.425-3.577v-21.752a3.357 3.357 0 1 1 6.713 0v17.3a43.987 43.987 0 0 0 4.68-4.352v-12.948a3.359 3.359 0 1 1 6.718 0v3.615a56.069 56.069 0 0 0 4.678-11.387z" fill="#d9d9d9" transform="translate(-17.872 20.648)"/><g fill="#b3b3b3"><path d="m3 1.144v31.975c0 10.46 5.247 38.433 34.1 48.025-4.273-3.839-3.935-9.836-3.935-9.836v-14.16c-5.457 3.237-5.378 13.294-5.378 13.294-11.871-22.511 5.893-27.25 12.072-30.851 6.429-3.747 4.346-9.608 4.346-9.608.009 4.5-3.319 7.093-9.835 7.531a10.656 10.656 0 0 0 -9 5.647s-4.842-2.7-4.112-7.835c.365.179 7.443 2.8 9.474-4.211 0 0-4.4-3.785-7.449-3.217a3.571 3.571 0 0 0 -3.219 3.012s-6.448-2.388-1.888-6.977a3.887 3.887 0 0 1 -3.891.356s1.881-3.063 10.6-7.914a.892.892 0 0 1 -.082-.539s.6-4.951 12.161-6.91c9.745-1.652 20.384 2.624 22.162-7.782zm23.6 16.782s3.6.715 5.176-.306-1.89-1.524-3.349-1.686z" transform="translate(29 33.856)"/><path d="m258.163 94.251a2.394 2.394 0 1 0 2.394 2.394 2.395 2.395 0 0 0 -2.394-2.394zm-52.033 8.012a10.292 10.292 0 0 0 -2.881-.355c-4.978 0-8.391 3.734-8.391 9.992 0 6.08 3.27 9.708 8.925 9.708a13.688 13.688 0 0 0 6.685-1.387v-25.372h-4.338zm0 16.145a4.174 4.174 0 0 1 -2.24.426c-3.342 0-4.73-2.845-4.73-7.183 0-4.054 1.28-7.29 5.05-7.29a6.776 6.776 0 0 1 1.92.249zm49.853 2.845h4.338v-19.168h-4.338zm18.924-21.194-2.189-4.494a2.382 2.382 0 0 0 -4.221-.071l4.026 4.565zm38.339 18.527c-3.165 0-4.976-1.778-5.331-5.334 4.951 0 10.056-.587 11.838-1.707.178-6.437-2.6-9.815-7.681-9.815-5.013 0-8.179 3.628-8.179 9.886 0 6.472 3.449 9.992 8.89 9.992a13.081 13.081 0 0 0 6.33-1.351l-1.031-2.739a10.454 10.454 0 0 1 -4.837 1.068zm-1.316-14.186c2.382 0 3.769 1.636 3.769 5.513a24.955 24.955 0 0 1 -7.886 1.137c-.107-4.59 1.587-6.65 4.117-6.65zm-88.985-2.667c-5.014 0-8.178 3.628-8.178 9.886 0 6.472 3.448 9.992 8.889 9.992a13.085 13.085 0 0 0 6.33-1.351l-1.031-2.739a10.455 10.455 0 0 1 -4.837 1.067c-3.163 0-4.975-1.778-5.33-5.334 4.951 0 10.057-.587 11.839-1.707.173-6.439-2.598-9.817-7.683-9.817zm-4.259 9.317c-.108-4.587 1.592-6.65 4.117-6.65 2.382 0 3.769 1.636 3.769 5.513a24.959 24.959 0 0 1 -7.886 1.134zm54.372-9.317c-5.014 0-8.179 3.628-8.179 9.886 0 6.472 3.449 9.992 8.89 9.992a13.081 13.081 0 0 0 6.329-1.351l-1.031-2.739a10.454 10.454 0 0 1 -4.836 1.067c-3.164 0-4.975-1.778-5.331-5.334 4.951 0 10.058-.587 11.839-1.707.177-6.439-2.597-9.817-7.682-9.817zm-4.259 9.317c-.107-4.587 1.592-6.65 4.116-6.65 2.383 0 3.77 1.636 3.77 5.513a24.961 24.961 0 0 1 -7.885 1.134zm15.679 1.047c0 5.8 3.129 9.352 7.717 9.352a7.473 7.473 0 0 0 3.591-.711v2.679c0 4.018-4.944 6.2-7 6.916l.993 2.638c4.243-.787 10.208-4.554 10.208-10.015v-19.824a12.087 12.087 0 0 0 -6.223-1.387c-6.193 0-9.287 4.125-9.287 10.348zm11.308 6.223a4.893 4.893 0 0 1 -2.453.6c-3.2 0-4.551-2.383-4.551-7.041 0-4.8 1.387-7.574 4.765-7.574a4.573 4.573 0 0 1 2.24.427zm-50.62-5.42v-18.051h-4.551v16.724c0 6.472 3.9 9.679 9.339 9.679h1.969v-3.022h-1.213c-3.164 0-5.544-1.742-5.544-5.33z" transform="translate(-77.924 -18.033)"/><path d="m234.592 20.887c-5.147 0-7.637 4.057-7.637 9.545 0 5.42 2.49 9.511 7.637 9.511s7.636-4.091 7.636-9.511c.001-5.489-2.454-9.545-7.636-9.545zm0 16.227c-2.863 0-3.511-3.239-3.511-6.716 0-3.511.58-6.887 3.511-6.887 2.966 0 3.511 3.375 3.511 6.887-.003 3.476-.544 6.716-3.511 6.716zm18.615-4.023a15.857 15.857 0 0 0 -.478 2.523h-.068a13.26 13.26 0 0 0 -.443-2.523l-3.238-11.864h-4.432l6 18.374h3.952l5.9-18.374h-3.885zm-49.615-17.283a14.458 14.458 0 0 0 -6.478 1.329v22.463h4.227v-9.271l.921.069c6.988.511 9.886-3.034 9.886-7.3 0-4.155-2.523-7.29-8.556-7.29zm-1.363 12.033-.888-.068v-9.1a5.852 5.852 0 0 1 2.182-.375c3.2 0 4.466 1.6 4.466 4.773 0 3.235-1.533 5.111-5.761 4.77zm13.883-5.624v17.383h4.158v-15.509a5.025 5.025 0 0 1 3.887-.137l.818-3.034c-4.636-.136-6.955.38-8.864 1.296zm64.18-1.33a16.885 16.885 0 0 0 -7.193 1.33v17.383h4.16v-15.577a6.931 6.931 0 0 1 2.862-.511c2.625 0 3.306 1.568 3.306 3.068v13.02h4.159v-13.088c-.001-2.967-1.808-5.625-7.295-5.625zm19.678 16.056c-2.557 0-3.955-2.591-3.955-6.648 0-4.022 1.194-6.579 4.024-6.579a3.736 3.736 0 0 1 2.453.784l.886-2.352a6.446 6.446 0 0 0 -4.26-1.261c-4.092 0-7.3 3.375-7.3 9.476 0 6.068 3.068 9.58 7.26 9.58a6.317 6.317 0 0 0 4.33-1.262l-.954-2.557a3.742 3.742 0 0 1 -2.486.819zm-36.085 2.657h4.159v-18.373h-4.159zm2.073-25.868a2.278 2.278 0 1 0 2.279 2.278 2.278 2.278 0 0 0 -2.28-2.276zm48.814 23.311c-3.034 0-4.771-1.7-5.111-5.114 4.747 0 9.642-.563 11.35-1.636.17-6.17-2.489-9.409-7.364-9.409-4.807 0-7.841 3.477-7.841 9.477 0 6.2 3.307 9.579 8.523 9.579a12.547 12.547 0 0 0 6.069-1.3l-.988-2.625a10.033 10.033 0 0 1 -4.639 1.03zm-1.262-13.6c2.284 0 3.614 1.569 3.614 5.285a23.928 23.928 0 0 1 -7.561 1.09c-.102-4.397 1.526-6.374 3.947-6.374z" transform="translate(-79.181 26.84)"/></g></svg>