<svg enable-background="new 0 0 274 150" viewBox="0 0 274 150" xmlns="http://www.w3.org/2000/svg"><g clip-rule="evenodd" fill="#b3b3b3" fill-rule="evenodd"><path d="m123.6 79.1c0-7.5 6.1-13.6 13.6-13.6s13.6 6.1 13.6 13.6-6.1 13.6-13.6 13.6-13.6-6.1-13.6-13.6zm13.5 21.4c15.2-1.2 24.9-15.2 19.5-29.5-5.9-15.5-21.3-13.5-21.3-13.5-5.8 0-10.5-4.7-10.5-10.5s5.3-10.5 12.3-12.1c5.6-1.2 27.5.3 32.7 26.6 0 0 5.2 21.8-18.8 35.5 0 0-.4.3-.2.5.1.2.5.1.5.1 14.3-5.7 24.5-19.7 24.5-36 0-21.4-17.3-38.8-38.7-38.8s-38.8 17.3-38.8 38.8c.1 21.5 17.4 38.9 38.8 38.9z"/><path d="m71.6 112.4h3.7l.1 13.1h4v2.3h-7.7z"/><path d="m83.7 116.8c1.6 0 4.6 1.1 4.6 5.6 0 5-3.4 5.6-4.5 5.6s-4.5-.8-4.6-5.6c0-4.9 3.5-5.6 4.5-5.6zm-.9 5.5c0 2.4.3 3.8 1 3.8s1-.8 1-3.8-.5-3.8-1-3.8c-.9.1-1 1.4-1 3.8z"/><path d="m164.9 116.5c1.6 0 4.6 1.1 4.6 5.6 0 5-3.4 5.6-4.5 5.6s-4.5-.8-4.6-5.6c0-4.9 3.5-5.6 4.5-5.6zm-.9 5.6c0 2.4.3 3.8 1 3.8s1-.8 1-3.8-.5-3.8-1-3.8c-.9.1-1 1.4-1 3.8z"/><path d="m88.9 114.9 3.2-2.1v4h2v1.8h-1.9v6.4s0 .9.4 1c.7.2 1.8-1.2 1.8-1.2v2.2s-.9.9-2.5.9c-1.5 0-2.9-1.3-3.1-2.4.1-.6.1-10.6.1-10.6z"/><path d="m150.1 114.9 3.2-2.1v4h2v1.8h-1.9v6.4s0 .9.4 1c.7.2 1.8-1.2 1.8-1.2v2.2s-.9.9-2.5.9c-1.5 0-2.9-1.3-3.1-2.4 0-.7.1-10.6.1-10.6z"/><path d="m98.7 116.3c1.5 0 3.7.1 4.6 4l-4.8 3.6s0 2.5 1.7 2.1 2.7-2.2 3-2.7v3s-1.2 1.6-3.6 1.6c-2.5 0-4.9-2-5-5.8-.3-4.8 3.7-5.8 4.1-5.8zm-.5 5.5 1.7-1.2c-.2-2-.3-2.6-1.1-2.5-1 .1-.6 3.7-.6 3.7z"/><path d="m119.7 116.3c1.5 0 3.7.1 4.6 4l-4.8 3.6s0 2.5 1.7 2.1 2.7-2.2 3-2.7v3s-1.2 1.6-3.6 1.6c-2.5 0-4.9-2-5-5.8-.3-4.8 3.8-5.8 4.1-5.8zm-.5 5.5 1.7-1.2c-.2-2-.3-2.6-1.1-2.5-1 .1-.6 3.7-.6 3.7z"/><path d="m197.4 116c1.5 0 3.7.1 4.6 4l-4.8 3.6s0 2.5 1.7 2.1 2.7-2.2 3-2.7v3s-1.2 1.6-3.6 1.6c-2.5 0-4.9-2-5-5.8-.3-4.8 3.7-5.8 4.1-5.8zm-.5 5.4 1.7-1.2c-.2-2-.3-2.6-1.1-2.5-1 .2-.6 3.7-.6 3.7z"/><path d="m104 118.4 3.3-2 .1 1.1s1.6-1.5 3.2-.7v3.7s-1.2-1.4-2.4-.8c-.7.4-.8 1-.8 1.5v6.5h-3.4z"/><path d="m113.2 116c1 0 1.8-.8 1.8-1.9 0-1-.8-1.9-1.8-1.9s-1.8.8-1.8 1.9.8 1.9 1.8 1.9z"/><path d="m111.5 118.2 3.3-1.9v11.3h-3.2z"/><path d="m158 116c1 0 1.8-.8 1.8-1.9 0-1-.8-1.9-1.8-1.9s-1.8.8-1.8 1.9c-.1 1.1.7 1.9 1.8 1.9z"/><path d="m156.3 118.2 3.2-1.9.1 11.3h-3.2z"/><path d="m129.7 111.4 3.4-.1 4.5 8.1-.1-8 2.2-.1.1 16.3h-2l-5.8-10v10h-2.2z"/><path d="m141.2 120.2v-2.6s1.2-1.2 3.8-1.2c2.7 0 3.7 1.4 3.8 2.1.2.6.2 1.3.2 2.7v5.5s.1.8.5 1.1h-3.5l-.4-.5s-.8.7-1.9.7-3.3-.9-3.3-3.7 2.1-3.9 3.5-3.9 1.6.2 1.6.2v-1.5s-.1-.6-.6-.7c-.6-.2-2.1.1-3.7 1.8zm2.6 3.6c0 .8 0 1.8.8 1.8s.9-1.3.9-1.8c0-1.2-.2-1.5-.8-1.6-.7 0-.9.8-.9 1.6z"/><path d="m180.2 120.2v-2.6s1.2-1.2 3.8-1.2c2.7 0 3.7 1.4 3.8 2.1.2.6.2 1.3.2 2.7v5.5s.1.8.5 1.1h-3.5l-.4-.5s-.8.7-1.9.7-3.3-.9-3.3-3.7 2.1-3.9 3.5-3.9 1.6.2 1.6.2v-1.5s-.1-.6-.6-.7c-.6-.2-2.1 0-3.7 1.8zm2.6 3.6c0 .8 0 1.8.8 1.8s.9-1.3.9-1.8c0-1.2-.2-1.5-.8-1.6-.7 0-.9.8-.9 1.6z"/><path d="m170.1 118.4 3.4-2.1v1.2s.6-1.1 2.4-1.1 2.5 1.6 2.5 2.5.1 8.7.1 8.7h-3.4v-7.3s0-1.3-.8-1.3-.8 1.3-.8 1.3v7.2h-3.5z"/><path d="m189.3 114.7 3.4-2.1v15h-3.4z"/></g></svg>