<svg viewBox="0 0 274 150" xmlns="http://www.w3.org/2000/svg" xmlns:xlink="http://www.w3.org/1999/xlink"><clipPath id="a"><path d="m84.4 75.1c0 27.4 21 50 47.8 52.4h9.6a52.6 52.6 0 1 0 -57.4-52.4"/></clipPath><path clip-path="url(#a)" d="m84.4 22.5h105.2v105h-105.2z" fill="#b3b3b3"/><path d="m144.6 60a7.6 7.6 0 1 1 15.2 0c0 3.2-1.4 5.4-8.6 7.8l-6.7 2.1v-9.9zm-15.2 30.2a7.6 7.6 0 1 1 -15.2 0c0-3.4 1.4-5.8 8.4-7.7l6.9-1.9v9.6zm26.4-13-.7-.1a3 3 0 0 0 -.8 5.7c3.3.9 5.7 3.9 5.7 7.4a7.6 7.6 0 1 1 -15.2 0v-14.2l8.6-2.7c6.5-2.2 12.5-5.3 12.5-13.3a13.4 13.4 0 0 0 -26.8-.2v11.9l-3.6 1.1v-13a13.4 13.4 0 0 0 -26.8.2c0 5.7 3.7 10.8 9 12.7l.5.2h.1l.6.1a2.9 2.9 0 0 0 1.1-5.6 7.6 7.6 0 1 1 9.8-7.3v14.4l-8.4 2.4c-5.4 1.5-12.7 4.5-12.7 13.3a13.4 13.4 0 0 0 26.8.7v-12.1l3.6-1.1v13.2a13.4 13.4 0 0 0 26.8-.7 14 14 0 0 0 -10.1-13" fill="#fff"/></svg>