<svg enable-background="new 0 0 274 150" viewBox="0 0 274 150" xmlns="http://www.w3.org/2000/svg"><g fill="#b3b3b3"><path d="m127.8 90.6c-.8-.8-1.8-1.2-2.9-1.2h-24.1.1c-1 0-1.8-.3-2.4-.9s-.9-1.3-.9-2.2v-15.4h27.3c.9 0 1.9-.1 2.9-1 .8-.8 1.2-1.8 1.2-2.9 0-1.2-.4-2.2-1.2-2.9-.9-.9-1.8-1.2-2.9-1.2h-27.4v-4.2-1.4c0-1.1-.4-2.1-1.2-2.9s-1.8-1.4-3-1.4-2.2.4-2.9 1.2c-.9.9-1.2 1.8-1.2 2.9v32.6c0 5.2 2.5 7.8 7.7 7.8h28.1c1.1 0 2.1-.4 2.9-1.2s1.2-1.8 1.2-2.9c0-1-.4-1.9-1.3-2.8z"/><path d="m150.8 62.7c-1 0-2 .1-2.9.9-.8.8-1.2 1.8-1.2 2.9 0 1.2.4 2.2 1.2 2.9.9.9 1.8 1.2 2.9 1.2h.6.2 14.9c1 0 1.7.3 2.3.9s.9 1.3.9 2.2l.1 12.4c0 .9-.3 1.7-.9 2.2-.6.6-1.4.9-2.4.9h-19.9c-1 0-1.8-.3-2.4-.9s-.9-1.3-.9-2.2l-.2-29.1c0-1.1-.4-2.1-1.2-2.9s-1.8-1.2-2.9-1.2-2.2.4-2.9 1.2c-.9.9-1.2 1.8-1.2 2.9v32.6c0 5.2 2.7 7.8 7.9 7.8h27.4c5.2 0 7.9-2.7 7.9-7.8v-19.4c0-5.1-2.5-7.5-7.8-7.6z"/><path d="m225.4 69.9c.8-.8 1.2-1.8 1.2-2.9 0-1.2-.4-2.2-1.2-2.9-.9-.9-1.9-1.3-2.9-1.3h-30.7c-5.1.1-7.6 2.7-7.6 7.6 0 .1-.1 10.8-.1 12.4v11.1c0 1.1.4 2.1 1.2 2.9s1.8 1.2 2.9 1.2c1.2 0 2.2-.4 2.9-1.2.9-.9 1.3-1.8 1.3-2.9v-7.3-7.9-5.7c0-1.4.6-2 1.9-2h28.3c1-.1 2-.2 2.8-1.1z"/><path d="m82.5 64c-.8-.8-1.7-1.2-2.9-1.2h-22.6c-.4 0-.7 0-.9 0-.6 0-.9-.2-1.3-.7-.8-1.1-2.4-1.5-3.7-1.5-1.2 0-2.4.5-3.2 1.4s-.9 1.8-.9 2.9v4.9.6 23.1c0 1.1.4 2.1 1.2 2.9.9.9 1.8 1.2 2.9 1.2 1.2 0 2.2-.4 2.9-1.2s1.2-1.8 1.2-2.9v-19.4c0-1 .3-1.8.9-2.4s1.4-.9 2.4-.9h21.1c1.2 0 2.2-.4 2.9-1.1.8-.8 1.2-1.8 1.2-2.9.1-1-.3-2-1.2-2.8z"/><path d="m216.5 82.3c0-1.2-.5-2.3-1.4-3.2-.9-.8-2-1.2-3.3-1.2h-8c-1.3 0-2.4.4-3.3 1.2-.9.9-1.4 1.9-1.4 3.2 0 1.2.5 2.3 1.4 3.2.9.8 2 1.2 3.3 1.2h8c1.3 0 2.4-.4 3.3-1.2 1-.9 1.4-2 1.4-3.2z"/></g></svg>