<svg enable-background="new 0 0 274 150" viewBox="0 0 274 150" xmlns="http://www.w3.org/2000/svg"><path d="m159.4 93.3h8.7c-5.9 9.2-16.1 15.1-27.8 15.1-11.6 0-21.9-5.9-27.8-15.1h8.7c4.8 5 11.5 8.3 19.1 8.3 7.5-.1 14.3-3.3 19.1-8.3zm-10.6-3.8v-27.7h7.5v27.7zm3.9-44.3c3 0 5.5 2.5 5.5 5.5s-2.5 5.5-5.5 5.5-5.5-2.5-5.5-5.5 2.5-5.5 5.5-5.5zm-15.4 44.3h-8.3l-4.8-20.2h-.1l-4.8 20.2h-8.3l-8.7-27.7h8.6l4.8 20h.1l4.3-20h8.1l4.6 20h.1l4.8-20h8.3zm3 41c-30.4 0-55.1-24.6-55.1-55.1 0-29.3 22.9-53.3 51.8-54.9l2.1 6.8c-26.1.6-47 21.9-47 48.2 0 26.6 21.6 48.2 48.2 48.2 9.7 0 18.7-2.9 26.3-7.8l2.1 6.8c-8.3 4.9-18 7.8-28.4 7.8zm48-41h-7.5v-16.8c0-2-.1-5.5-5-5.5-3.4 0-6 2.2-6 6.4v15.9h-7.7v-27.7h7.5v4c1-1.7 3.2-4.8 8.7-4.8 5.7 0 10 3.2 10 9.3z" fill="#b3b3b3"/></svg>