<svg height="150" viewBox="0 0 274 150" width="274" xmlns="http://www.w3.org/2000/svg"><path d="m0 0h274v150h-274z" fill="none"/><g fill="#b3b3b3"><path d="m403.882 307.3h6.9v-28.8h-6.9zm76.338-28.8v16.472c0 4.734-2.662 6.214-5.968 6.214s-5.917-1.48-5.917-6.214v-16.472h-6.9v16.472c0 8.531 4.438 12.821 12.822 12.821 8.432 0 12.87-4.289 12.87-12.821v-16.472zm-47.44 28.8h6.9v-17.75c0-2.911 1.185-4.932 5.277-4.932 3.648 0 5.325 1.578 5.325 4.932v17.75h6.909v-18.242c0-7.841-5.776-11.048-12.234-11.048-3.107 0-6.559.987-8.73 3.157-2.169-2.169-5.622-3.157-8.728-3.157-6.756 0-12.231 3.749-12.231 11.048v18.242h6.9v-17.75c0-2.911 1.184-4.932 5.277-4.932 3.65 0 5.329 1.578 5.329 4.932zm-92.415.492c-7.842 0-13.908-5.326-13.908-14.891s6.066-14.894 13.908-14.894 13.954 5.326 13.954 14.894-6.119 14.899-13.954 14.899zm0-23.177c-4.094 0-7.005 2.466-7.005 8.286s2.912 8.233 7.005 8.233c4.14 0 7.051-2.414 7.051-8.233s-2.912-8.286-7.051-8.286zm-22.933 22.685h-6.9v-16.863c0-7.051 4.587-12.427 12.723-12.427a12.791 12.791 0 0 1 2.814.248l-1.185 6.658s-.987-.1-1.629-.1c-3.994 0-5.818 2.416-5.818 6.114zm-24.557.492a12.55 12.55 0 0 1 -6.756-1.871v12.969h-6.907v-25.99c0-9.568 5.819-14.894 13.663-14.894s13.66 5.326 13.66 14.894-5.82 14.891-13.66 14.891zm0-6.658c4.093 0 6.753-2.414 6.753-8.233s-2.661-8.286-6.753-8.286-6.756 2.466-6.756 8.286 2.661 8.233 6.756 8.233zm210.625-11.434c-4.833-1.677-5.869-2.169-5.869-3.5 0-1.086.543-1.973 3.106-1.973a37.167 37.167 0 0 1 9.667 1.331l1.28-5.967a31.4 31.4 0 0 0 -10.746-1.578c-8.189 0-10.161 4.34-10.161 8.433 0 4.241 2.169 6.214 9.469 8.729 4.88 1.726 6.114 2.366 6.114 3.848 0 1.528-1.431 2.561-4.637 2.561a27.933 27.933 0 0 1 -9.765-2.314l-1.626 5.965a24.111 24.111 0 0 0 11.345 2.564c8.628 0 11.538-4.094 11.538-8.776-.003-4.492-2.123-6.761-9.715-9.323z" transform="translate(-259.212 -219.535)"/><path d="m385.745 271.917c-.452-.6-3.082-3.867-6.828-4.152a7.321 7.321 0 0 0 -5.856 2.321 7.2 7.2 0 0 0 -2.287 5.82c.286 3.746 3.554 6.375 4.152 6.827a23.221 23.221 0 0 0 8.849 4.061 28.745 28.745 0 0 0 -1.336-6.365 14.587 14.587 0 0 1 -3.993-2.161l-.083-.064a5.025 5.025 0 0 1 -1.921-2.738c-.011-.167-.042-.612.688-1.343.733-.732 1.177-.7 1.346-.69a5.016 5.016 0 0 1 2.728 1.906l.074.1c2.438 3.035 3.958 8.783 3.968 14.992-.01 6.209-1.53 11.957-3.968 14.992l-.074.1a5.014 5.014 0 0 1 -2.728 1.907c-.168.011-.613.042-1.346-.689-.731-.732-.7-1.176-.688-1.344a5.022 5.022 0 0 1 1.921-2.738l.083-.064a14.59 14.59 0 0 1 3.993-2.162 28.727 28.727 0 0 0 1.336-6.365 23.208 23.208 0 0 0 -8.849 4.061c-.6.452-3.867 3.081-4.152 6.827a7.2 7.2 0 0 0 2.287 5.819 7.323 7.323 0 0 0 5.856 2.323c3.746-.286 6.375-3.555 6.828-4.152 3.285-4.121 5.176-10.864 5.187-18.512-.011-7.654-1.902-14.397-5.187-18.517z" transform="translate(-275.186 -217.744)"/><path d="m406.453 271.917c.452-.6 3.081-3.867 6.828-4.152a7.319 7.319 0 0 1 5.855 2.321 7.2 7.2 0 0 1 2.287 5.82c-.286 3.746-3.555 6.375-4.153 6.827a23.215 23.215 0 0 1 -8.849 4.061 28.742 28.742 0 0 1 1.336-6.365 14.587 14.587 0 0 0 3.993-2.161l.083-.064a5.025 5.025 0 0 0 1.921-2.738c.012-.167.043-.612-.688-1.343-.732-.732-1.177-.7-1.346-.69a5.012 5.012 0 0 0 -2.727 1.906l-.075.1c-2.438 3.035-3.958 8.783-3.967 14.992.009 6.209 1.53 11.957 3.967 14.992l.075.1a5.009 5.009 0 0 0 2.727 1.907c.168.011.613.042 1.346-.689.731-.732.7-1.176.688-1.344a5.022 5.022 0 0 0 -1.921-2.738l-.083-.064a14.589 14.589 0 0 0 -3.993-2.162 28.724 28.724 0 0 1 -1.336-6.365 23.2 23.2 0 0 1 8.849 4.061c.6.452 3.867 3.081 4.153 6.827a7.2 7.2 0 0 1 -2.287 5.819 7.322 7.322 0 0 1 -5.855 2.323c-3.747-.286-6.376-3.555-6.828-4.152-3.286-4.121-5.177-10.864-5.188-18.512.012-7.654 1.902-14.397 5.188-18.517z" transform="translate(-280.51 -217.744)"/><path d="m397.806 285.286q-1.018 0-2.015-.057a41.458 41.458 0 0 1 .712 5.721q.646.02 1.3.021t1.3-.021a41.7 41.7 0 0 1 .712-5.721q-.99.055-2.009.057z" transform="translate(-279.555 -220.795)"/><path d="m397.806 303.94q-1.018 0-2.015.057a41.442 41.442 0 0 0 .712-5.721c.431-.012.866-.021 1.3-.021s.872.009 1.3.021a41.687 41.687 0 0 0 .717 5.724q-.995-.057-2.014-.06z" transform="translate(-279.555 -223.068)"/></g></svg>