<svg enable-background="new 0 0 274 150" viewBox="0 0 274 150" xmlns="http://www.w3.org/2000/svg"><g fill="#b3b3b3"><path d="m134.2 32.9c-.6-.2-1.1-.4-1.4-.4-.3-.1-.6-.1-1-.1-1.5 0-2.9.7-3.6 1.7-1.7 2.9.9 6.2 2.8 8.1.9-.1 1.7-.2 2.6-.3-1.8-2-3.6-4.9-2.1-7.4.6-.8 1.6-1.3 2.7-1.6"/><path d="m138.8 35.8c0-1.1-.9-2-1.9-2-1.1 0-2 .9-2 2s.9 2 2 2c1 0 1.9-.8 1.9-2"/><path d="m126.8 33.2c.2-.3.3-.5.6-.7-1.2.1-2.4.7-3 1.7-1.9 3.2 1.6 7.1 3.5 8.8.4-.1.8-.2 1.2-.3-1.1-1.2-2.2-2.8-2.7-4.5-.7-1.9-.5-3.5.4-5"/><path d="m147.3 38.2c-.5 1.7-1.6 3.2-2.7 4.5l1.2.3c1.8-1.7 5.4-5.6 3.5-8.8-.6-1-1.8-1.5-3-1.7.2.2.4.5.6.7.8 1.5 1 3.1.4 5"/><path d="m168.1 52.5c-4.4-4.4-9.7-7.8-15.4-10 .9-1.2 1.7-2.6 2.1-4.1.9-2.7.6-5.3-.8-7.6-1.5-2.5-4.5-4.1-7.8-4.1-.7 0-1.3.1-1.9.2-.1 0-1 .2-2.2.5-.4-2.5-2.6-4.4-5.2-4.4-2.7 0-4.9 2-5.3 4.6-1.5-.4-2.8-.7-2.9-.7-.6-.1-1.3-.2-1.9-.2-3.3 0-6.3 1.6-7.8 4.1-1.4 2.3-1.6 4.9-.8 7.6.5 1.5 1.3 3 2.3 4.3-5.5 2.2-10.6 5.5-15 9.8-8.4 8.3-13 19.4-13 31.2s4.6 22.9 13 31.3 19.5 12.9 31.3 12.9 22.9-4.6 31.2-12.9c8.3-8.4 12.9-19.5 12.9-31.3.1-11.8-4.5-22.9-12.8-31.2m-32.6-24.7h1.1l-.2-1h1.1l-.2 1h1.1v1.1h-1.1l.2 1h-.5-.6l.2-1h-1.1zm1.3 96.3c-22.3 0-40.4-18.1-40.4-40.4 0-18.8 12.9-34.6 30.3-39.1v-.2c-1.4-1.2-3.7-3.6-4.5-6.3-.6-1.8-.4-3.5.5-5 1.3-2.2 4.3-2.9 6.4-2.5.2 0 .4.1.7.2.6-.2 1.3-.3 2-.3.5 0 .9 0 1.3.1.6.1 1.6.5 2.5.8.1-.5.5-1 1.1-1 .5 0 1 .4 1.1 1 .8-.3 1.9-.7 2.5-.8.4-.1.9-.1 1.3-.1.7 0 1.4.1 2 .3.2-.1.5-.1.7-.2 2.2-.5 5.1.2 6.4 2.5.9 1.5 1.1 3.2.5 5-.8 2.6-4.5 6.3-4.5 6.3v.2c17.4 4.5 30.3 20.3 30.3 39.1.1 22.3-17.9 40.4-40.2 40.4"/><path d="m137.9 39.7c0-.6-.5-1.1-1.1-1.1-.7 0-1.2.5-1.2 1.1 0 .7.5 1.1 1.2 1.1.6 0 1.1-.5 1.1-1.1"/><path d="m142.1 34.6c1.5 2.5-.3 5.4-2.1 7.4.8.1 1.7.2 2.5.3 1.9-1.9 4.5-5.3 2.8-8.1-.6-1-2-1.7-3.5-1.7-.3 0-.7 0-1 .1s-.8.2-1.4.4c1.2.1 2.2.7 2.7 1.6"/><path d="m144 51.5c-.2.1-.3.3-.7.3l-.1.3.5.1-.5 2.3.5.1.7-3z"/><path d="m135.1 52.2c.2-.2.3-.4.3-.7 0-.6-.5-.8-1-.8s-.9.3-.9.9c0 .3.2.5.4.6-.3.1-.4.4-.4.8.1.6.5.9 1.1.8.6 0 1-.4 1-1 0-.2-.1-.5-.5-.6m-.6-1c.2 0 .4.1.4.4 0 .2-.2.4-.4.4s-.4-.1-.4-.4c0-.2.2-.4.4-.4m.2 2.2c-.3 0-.5-.1-.5-.4s.1-.5.4-.5.5.1.5.4-.1.5-.4.5"/><path d="m129.9 51.4c-.1.2-.1.4-.6.6l.1.3.5-.1.5 2.3.5-.1-.7-3z"/><path d="m139.4 50.8c-.7-.1-1 .4-1.1 1 0 .5.2.9.7 1 .2 0 .5-.1.7-.2v.3c0 .5-.2.6-.5.6-.2 0-.4-.2-.3-.4h-.6c0 .6.4.9.9.9.7.1 1-.3 1.1-1l.1-1c0-.8-.4-1.2-1-1.2m.4 1.1v.2c-.2.1-.3.2-.5.2-.3 0-.4-.2-.4-.5s.2-.5.5-.5c.2 0 .4.1.4.6"/><path d="m146.3 116.7.3 1 .9-.3.1.5c.2.7 0 1.2-.6 1.3-.2 0-.3.1-.4.1-.4 0-.7-.3-.9-.9l-.8-2.9c-.2-.7 0-1.2.7-1.4.6-.2 1 .1 1.3.9l1.2-.3c-.4-1.2-1.1-1.8-2-1.8-.2 0-.5 0-.8.1-1.4.4-1.9 1.4-1.5 3l.7 2.5c.4 1.5 1.4 2.1 2.8 1.7.4-.2.7-.5 1-1l.1-.1.4.6.6-.2-1-3.5z"/><path d="m104.8 99.1-.5-1.2-.4.2c-.3.1-.5.1-.6.1-.5 0-.7-.4-.8-.6-.1-.3-.1-.6 0-.8s.3-.4.7-.6l2.8-1.1c.2-.1.4-.1.6-.1.5 0 .7.4.8.6.1.3.1.6 0 .8s-.3.4-.7.6l-.1.1.5 1.2c.8-.3 1.2-.7 1.4-1.3.2-.5.1-1.1-.1-1.7-.4-1-1-1.5-1.8-1.5-.4 0-.8.1-1.2.3l-2.5 1c-.8.3-1.3.8-1.5 1.3s-.1 1 .1 1.7c.6 1.4 1.6 1.8 3.1 1.2z"/><path d="m110.8 99.9-.7-1-6.1 3.9 1.9 3 .9-.6-1.3-1.9z"/><path d="m126.5 112.6-1.8-.6-2.4 6.9 1.9.6c.4.1.8.2 1.2.2.9 0 1.5-.5 1.8-1.4s.1-1.3-.4-2l-.1-.1h.1c.6-.1 1.1-.5 1.3-1.1.5-1.4-.6-2.1-1.6-2.5m-.5 5.3c-.2.5-.5.8-1 .8-.2 0-.3 0-.5-.1l-.6-.2.7-2.2.5.2c.4.1.6.3.8.6.2.2.2.5.1.9m.9-3c-.1.4-.5.6-.9.6-.1 0-.3 0-.4-.1l-.6-.2.6-1.8.6.2c.3.1.6.3.7.5s.1.5 0 .8"/><path d="m132.5 114.1-2-.3-1 7.2 1.2.2.4-3 .8.1.8 3.2 1.4.2-1-3.5h.1c.7-.2 1.2-.7 1.3-1.6.1-.7 0-1.2-.4-1.7-.2-.4-.8-.7-1.6-.8m.9 2.3c-.1.8-.6 1-1 1-.1 0-.2 0-.2 0l-.8-.1.3-2.2.8.1c.3.1.6.2.7.4.2.1.3.4.2.8"/><path d="m141.4 114.2-1.3.1.4 5.1c0 .4 0 .7-.2.9s-.4.3-.8.3c-.7 0-1.1-.3-1.2-1.1l-.4-5.1-1.2.1.4 5.1c.1 1.4.8 2.1 2.2 2.1h.3c1.1-.1 2.3-.6 2.2-2.4z"/><path d="m152.7 114.2.5.9.9-.5.2.5c.2.3.2.6.2.8-.1.3-.2.5-.5.6-.6.3-1 .2-1.4-.5l-1.4-2.7c-.3-.7-.2-1.2.4-1.5s1-.1 1.4.7l1.1-.6c-.5-.9-1.2-1.4-1.9-1.4-.3 0-.7.1-1.1.3-.6.3-1 .7-1.2 1.2s-.1 1.2.3 2l1.2 2.3c.7 1.4 1.8 1.8 3.1 1.1.4-.2.7-.6.8-1.2v-.1l.6.5.5-.3-1.7-3.2z"/><path d="m166.2 93.1-.2.6 4.9 4.1v.1h-.1l-6.3-.7-.2.6 7.5.8.3-.6z"/><path d="m159.4 112.9-1.3-1.6 1.4-1.2-.6-.9-1.5 1.2-1.2-1.5 1.9-1.5-.6-.9-2.9 2.4 4.5 5.7 3-2.4-.7-.9z"/><path d="m115.1 105.4-3.8 3.5c-.3.3-.6.4-.8.4-.3 0-.5-.1-.8-.4-.2-.3-.3-.5-.3-.8s.2-.5.5-.8l3.7-3.5-.8-.9-3.8 3.5c-.6.5-.8 1.1-.8 1.6s.3 1.1.8 1.6c1 1.1 2.1 1.2 3.2.2l3.8-3.5z"/><path d="m163.4 99.3-.4.6 1.4 4.7-.1.1-3.1-2.2-.4.6 5.9 4.1.4-.5-2-1.4-.5-2 4.6.5.4-.6-5.2-.5z"/><path d="m119 108.7-1.6-1.1-4.2 5.9 1.6 1.1c1.3.9 2.4.8 3.1-.3.5-.7.5-1.3.2-2l-.1-.1h.1c.7 0 1.2-.2 1.6-.7 1-1.2.1-2.2-.7-2.8m-2 4.9c-.2.3-.6.5-.9.5-.2 0-.5-.1-.8-.3l-.6-.4 1.3-1.9.5.3c.3.2.5.5.6.8.2.3.1.7-.1 1m1.7-2.7c-.2.3-.4.4-.7.4-.2 0-.5-.1-.7-.3l-.5-.3 1.1-1.6.5.4c.5.4.6.9.3 1.4"/><path d="m171.1 87.6c1.3-.3 3-2 3-3.8-1.7.5-3 2.6-3 3.8"/><path d="m170.5 68.2c-1.3 1.3-1.5 3.7-.9 4.8 1-.8 1.7-3.1.9-4.8"/><path d="m171.4 80.1c1.2-.6 2.3-2.8 1.8-4.5-1.6 1-2.2 3.3-1.8 4.5"/><path d="m168.5 65.1c-1.1 1.4-.8 3.9 0 4.9.8-1 1-3.4 0-4.9"/><path d="m171.8 83.8c1.2-.5 2.5-2.6 2.2-4.4-1.7.9-2.5 3.2-2.2 4.4"/><path d="m169 73.1c-.5-1.3-2.5-2.6-4.3-2.4.8 1.7 3.1 2.6 4.3 2.4"/><path d="m164.7 64.2c-.7-1.1-3-2.1-4.7-1.5 1.1 1.5 3.5 2 4.7 1.5"/><path d="m167.9 70.3c-.6-1.2-2.7-2.3-4.5-2 .9 1.6 3.3 2.3 4.5 2"/><path d="m166.3 67.1c-.7-1.1-2.9-2.1-4.7-1.5 1.1 1.5 3.5 2 4.7 1.5"/><path d="m164.6 58.9c-1 1.5-.6 3.9.3 4.9.7-1.1.8-3.6-.3-4.9"/><path d="m159.7 53.7c-.8 1.7-.2 4 .8 4.8.6-1.1.5-3.5-.8-4.8"/><path d="m162.1 56.1c-.9 1.6-.3 4 .6 4.9.7-1.1.7-3.6-.6-4.9"/><path d="m166.6 61.9c-1.1 1.5-.8 3.9 0 4.9.9-1 1.1-3.4 0-4.9"/><path d="m170.6 76.6c1.1-.8 2-3 1.3-4.7-1.4 1.1-1.8 3.5-1.3 4.7"/><path d="m166.3 73.5c.5 1.7 2.5 3 3.8 3.1-.3-1.3-2-3-3.8-3.1"/><path d="m158.3 56.3c.4-1.3-.2-3.6-1.8-4.6-.4 1.8.7 3.9 1.8 4.6"/><path d="m160 58.9c-.9-1-3.2-1.6-4.9-.8 1.3 1.3 3.8 1.5 4.9.8"/><path d="m103.4 73.1c.6-1.1.5-3.5-.9-4.8-.8 1.6-.2 3.9.9 4.8"/><path d="m101.6 80.1c.4-1.2-.3-3.6-1.8-4.5-.5 1.7.6 3.9 1.8 4.5"/><path d="m104.5 65.1c-1.1 1.5-.8 3.9 0 4.9.8-1 1.1-3.5 0-4.9"/><path d="m101.2 83.8c.3-1.3-.6-3.5-2.2-4.4-.3 1.8 1 3.9 2.2 4.4"/><path d="m104 73.1c1.3.2 3.5-.7 4.3-2.4-1.9-.2-3.9 1.1-4.3 2.4"/><path d="m108.3 64.2c1.2.5 3.6 0 4.7-1.5-1.7-.5-4 .4-4.7 1.5"/><path d="m105.1 70.3c1.2.3 3.6-.4 4.5-2-1.8-.4-3.9.8-4.5 2"/><path d="m106.7 67.1c1.2.4 3.6-.1 4.7-1.5-1.8-.6-4 .4-4.7 1.5"/><path d="m108.4 58.9c-1.1 1.4-1.1 3.8-.3 4.9.9-1 1.3-3.4.3-4.9"/><path d="m113.3 53.7c-1.3 1.3-1.5 3.7-.8 4.8 1-.8 1.7-3.2.8-4.8"/><path d="m110.8 56.1c-1.2 1.3-1.3 3.8-.6 4.9 1-.9 1.5-3.3.6-4.9"/><path d="m106.3 61.9c-1.1 1.5-.9 3.9 0 4.9.8-1 1.1-3.4 0-4.9"/><path d="m102.4 76.6c.5-1.2.1-3.6-1.3-4.7-.7 1.7.2 3.9 1.3 4.7"/><path d="m102.9 76.6c1.3 0 3.3-1.3 3.8-3.1-1.8.1-3.6 1.8-3.8 3.1"/><path d="m116.4 51.7c-1.5 1-2.2 3.3-1.8 4.6 1.2-.7 2.3-2.8 1.8-4.6"/><path d="m116.6 55c1.3.1 3.5-1 4.1-2.7-1.8-.1-3.7 1.4-4.1 2.7"/><path d="m113 58.9c1.1.6 3.6.5 4.9-.8-1.7-.8-4-.2-4.9.8"/><path d="m114.9 56.7c1.1.6 3.6.5 4.9-.8-1.7-.8-4.1-.2-4.9.8"/><path d="m110.6 61.5c1.1.6 3.6.3 4.8-1.1-1.6-.7-4 .1-4.8 1.1"/><path d="m101.8 83.7c1.2-.3 2.9-2.1 3-3.9-1.7.6-3 2.6-3 3.9"/><path d="m102.1 80.1c1.3-.2 3.2-1.7 3.5-3.5-1.9.3-3.4 2.1-3.5 3.5"/><path d="m99.1 87.7c.3 1.8 2.1 3.4 3.4 3.5-.1-1.3-1.6-3.2-3.4-3.5"/><path d="m101.8 87.6c0-1.3-1.3-3.3-3-3.8.1 1.8 1.7 3.6 3 3.8"/><path d="m102.3 87.4c1.2-.4 2.8-2.3 2.7-4.1-1.6.7-2.8 2.8-2.7 4.1"/><path d="m102.9 91c1.2-.5 2.5-2.6 2.2-4.4-1.5.8-2.4 3.1-2.2 4.4"/><path d="m156.4 55c-.4-1.3-2.3-2.8-4.1-2.7.6 1.7 2.9 2.8 4.1 2.7"/><path d="m158.1 56.7c-.9-1-3.2-1.6-4.9-.8 1.3 1.3 3.8 1.5 4.9.8"/><path d="m162.4 61.5c-.8-1.1-3.1-1.8-4.8-1.1 1.2 1.4 3.6 1.7 4.8 1.1"/><path d="m168.2 79.9c0 1.8 1.7 3.6 3 3.9 0-1.4-1.3-3.4-3-3.9"/><path d="m170.9 80.1c-.1-1.4-1.7-3.2-3.5-3.5.3 1.8 2.2 3.3 3.5 3.5"/><path d="m170.5 91.2c1.3-.1 3.2-1.7 3.4-3.5-1.8.3-3.3 2.2-3.4 3.5"/><path d="m167.9 83.4c-.1 1.8 1.5 3.7 2.7 4.1.2-1.4-1-3.5-2.7-4.1"/><path d="m167.8 86.6c-.3 1.8 1.1 3.8 2.2 4.4.3-1.3-.6-3.6-2.2-4.4"/><path d="m136.8 47.5c-4.3 0-9.3.6-8.6 1 .7.3 3.4.8 8.6.8s7.9-.4 8.6-.8c.6-.4-4.3-1-8.6-1"/><path d="m136.8 45.1c-.4 0-.8.3-.8.8 0 .4.4.8.8.8s.7-.3.7-.8c.1-.4-.3-.8-.7-.8"/><path d="m144.7 45.9c-.4 0-.8.3-.8.8 0 .4.4.8.8.8s.7-.3.7-.8c.1-.5-.3-.8-.7-.8"/><path d="m128.9 45.9c-.4 0-.8.3-.8.8 0 .4.4.8.8.8s.7-.3.7-.8c.1-.5-.3-.8-.7-.8"/><path d="m140.6 45.6c-.3 0-.5.2-.5.5s.2.5.5.5.5-.2.5-.5-.2-.5-.5-.5"/><path d="m133 45.6c-.3 0-.5.2-.5.5s.2.5.5.5.5-.2.5-.5-.2-.5-.5-.5"/><path d="m126.8 44.7.1 1.1c3.2-.9 6.5-1.4 9.9-1.4s6.7.5 9.9 1.4l.1-1.1c-3.2-.9-6.5-1.4-10-1.4-3.4.1-6.8.5-10 1.4"/><path d="m164.8 83.7c0-15.6-12.6-28.2-28.2-28.2s-28.3 12.6-28.3 28.2 12.6 28.2 28.3 28.2c15.5.1 28.2-12.6 28.2-28.2m-28.3 24.8c-13.7 0-24.8-11.1-24.8-24.8 0-13.6 11.1-24.7 24.8-24.7 13.6 0 24.7 11.1 24.7 24.7.1 13.7-11 24.8-24.7 24.8"/><path d="m159.7 78v.1s0 0 0-.1z"/><path d="m160.3 83.4v.5c0-.2 0-.3 0-.5z"/><path d="m136.9 59.9c-.2 0-.4 0-.6 0z"/><path d="m159.9 79c0 .1 0 .2.1.3-.1-.1-.1-.2-.1-.3z"/><path d="m160.2 81.2v.4c0-.1 0-.3 0-.4z"/><path d="m160.3 82.5v.4c0-.2 0-.3 0-.4z"/><path d="m160.1 80.2v.3c0-.1 0-.2 0-.3z"/><path d="m137.4 59.9h.4c-.1 0-.3 0-.4 0z"/><path d="m140.9 60.3c.1 0 .2 0 .3.1-.1 0-.2-.1-.3-.1z"/><path d="m135 60h.6c-.2-.1-.4 0-.6 0z"/><path d="m139.7 60.1h.3c-.1.1-.2 0-.3 0z"/><path d="m138.7 60h.4c-.2 0-.3 0-.4 0z"/><path d="m152.6 66.1c-.1-.1-.3-.3-.4-.4.1.2.2.3.4.4z"/><path d="m159.7 78c-.7-2.8-1.9-5.5-3.6-8l-33.2 33.2c2.5 1.7 5.2 2.9 8 3.6z"/><path d="m121.3 102c.2.2.4.4.7.5-.3-.1-.5-.3-.7-.5z"/><path d="m122.1 102.7c.3.2.5.4.8.6-.3-.2-.6-.4-.8-.6z"/><path d="m156 70.1c-.2-.3-.4-.5-.6-.8.3.2.4.5.6.8z"/><path d="m117.7 98.3c.2.2.4.5.5.7-.2-.2-.3-.5-.5-.7z"/><path d="m118.5 99.3c.1.2.3.3.4.5-.1-.2-.3-.4-.4-.5z"/><path d="m142 60.6h.2l-28.8 28.8c0-.1 0-.1 0-.2.8 3.2 2.2 6.3 4.3 9-.2-.3-.4-.5-.6-.8l33.2-33.2c-2.6-1.7-5.4-3-8.3-3.6z"/><path d="m120.5 101.3c.2.1.3.3.5.4-.2-.1-.3-.2-.5-.4z"/><path d="m155.4 69.2c-.2-.2-.4-.5-.5-.7.1.2.3.4.5.7z"/><path d="m133.4 60.1c.4-.1.9-.1 1.3-.1-.4 0-.8.1-1.3.1z"/><path d="m154.6 68.2c-.1-.2-.3-.3-.4-.5.1.2.2.3.4.5z"/><path d="m151 64.8c-.2-.2-.5-.4-.7-.5.2.1.4.3.7.5z"/><path d="m151.8 65.4c-.2-.2-.4-.3-.6-.5.1.2.4.4.6.5z"/><path d="m130.5 60.7c.2-.1.5-.1.7-.2-.2.1-.5.1-.7.2z"/><path d="m138 107.5c-.2 0-.3 0-.5 0z"/><path d="m141.7 107c-.4.1-.8.2-1.2.2.4-.1.8-.1 1.2-.2z"/><path d="m140.3 107.3c-.2 0-.4.1-.6.1.2-.1.4-.1.6-.1z"/><path d="m139.4 107.4c-.3 0-.6.1-1 .1.3-.1.7-.1 1-.1z"/><path d="m134.4 107.5c-.1 0-.2 0-.3 0 .1-.1.2-.1.3 0z"/><path d="m135.6 107.5c-.1 0-.2 0-.4 0z"/><path d="m160.1 86.8c.1-.4.1-.9.1-1.3 0 .5 0 .9-.1 1.3z"/><path d="m133.3 107.3c-.1 0-.2 0-.2 0z"/><path d="m160 87.5c0-.2.1-.5.1-.7 0 .3 0 .5-.1.7z"/><path d="m159.6 89.8-17 17c4-1 7.7-3.1 10.8-6.2 3.6-3.6 5.9-8.2 6.6-12.9-.1.7-.2 1.4-.4 2.1z"/><path d="m142.5 106.8c-.2.1-.5.1-.7.2.3-.1.5-.2.7-.2z"/><path d="m160.3 85.2c0-.2 0-.4 0-.6z"/><path d="m112.9 86.9v.3c0-.1 0-.2 0-.3z"/><path d="m112.7 83v1.1c0-.4 0-.8 0-1.1z"/><path d="m113.1 88.1c0 .1 0 .2.1.3 0 0-.1-.2-.1-.3z"/><path d="m112.7 82.8c0-.2 0-.4 0-.6z"/><path d="m112.8 81.9c.1-.7.1-1.4.2-2-.1.7-.2 1.4-.2 2z"/><path d="m113.5 77.7 17-17c-4 1-7.7 3.1-10.8 6.2-3.7 3.7-5.9 8.2-6.7 12.9.1-.7.3-1.4.5-2.1z"/><path d="m131.2 60.5c.4-.1.9-.2 1.4-.3-.5.1-.9.2-1.4.3z"/><path d="m112.8 85.8v.4c0-.1 0-.2 0-.4z"/><path d="m136.2 107.5h.4c-.1.1-.2 0-.4 0z"/><path d="m131 106.9h-.1z"/><path d="m112.7 84.5v.5c0-.1 0-.3 0-.5z"/><path d="m132.7 60.2c.2 0 .5-.1.7-.1-.2 0-.5.1-.7.1z"/><path d="m132.1 107.1c-.1 0-.2 0-.3-.1.1.1.2.1.3.1z"/></g></svg>