<svg enable-background="new 0 0 274 150" viewBox="0 0 274 150" xmlns="http://www.w3.org/2000/svg"><g clip-rule="evenodd" fill-rule="evenodd"><path d="m211.8 113h-150v-75h150z" fill="#fff"/><path d="m71.2 76h-9.4v36.9h36.9v-9.4h.2.4v-28l-4.6 5 4.1 18.9-5.7-17.8-19.4-6h-2.5zm8.3 3.1.9.3c1.6 7.5 7.4 13.4 14.9 14.9l.3.9c-8.2-1.4-14.6-7.9-16.1-16.1z" fill="#d8d8d8"/><path d="m136.8 38h-36.9v9.4h-.2-.4v28.1l4.6-5-4.1-18.9 5.7 17.8 19.4 6h2.5v-.4-.2h9.4zm-33.8 17.7c8.2 1.5 14.6 8 16.1 16.2l-.9-.3c-1.5-7.5-7.4-13.4-14.9-14.9z" fill="#d8d8d8"/><path d="m98.7 47.3v-9.3h-36.9v36.9h9.4v.2.4h28.1l-5-4.6-18.8 4.1 17.8-5.7 6-19.4v25.6-28.2h-.4zm-3.1 8.3-.3.9c-7.4 1.6-13.3 7.5-14.9 15l-.9.3c1.5-8.2 8-14.7 16.1-16.2z" fill="#b3b3b3"/><path d="m127.4 76v-.2-.4h-28.1l4.9 4.6 18.9-4.1-17.8 5.7-6 19.4v2.5h.4.2v9.4h36.9v-36.9zm-8.3 3.2c-1.5 8.2-8 14.6-16.1 16.1l.3-.9c7.5-1.6 13.3-7.4 14.9-14.9z" fill="#b3b3b3"/><g fill="#bfbfbf"><path d="m202.8 61.1c-.1.1-2.3 3.4-7 3.4-2.4 0-4.5-.8-6-2.3s-2.3-3.5-2.3-5.7c0-2.1.7-4 2.1-5.4 1.6-1.6 3.8-2.5 6.5-2.5 2.3 0 4.4.8 5.9 2.4 1.4 1.4 2.2 3.4 2.2 5.4 0 1.3-.1 2.7-1.4 4.7zm-15.7-8c-.3 0-.4-.3-.6-1.1-.4-1.6-.9-1.6-3-1.6h-1.9v3.9c0 3.4 0 7.6.1 8.2.1.3.7.5 1 .5l.6.1c.6.1.9.1 1 .4.1.2.1.4-.1.6-.1.1-.3.1-1.5 0-.6 0-1.4 0-2.3-.1-1.1 0-1.8 0-2.4.1-.6 0-.9 0-1.2 0-.1 0-.2-.1-.2-.3 0-.1 0-.3.1-.4.2-.2.3-.2.7-.3.2 0 .4 0 .7-.1.4-.1 1.1-.4 1.2-.6.1-.5.1-7.5.1-10.8v-1.3h-2.8c-.8 0-1.3.3-1.9 1.1-.1.2-.6.8-.8 1.1-.2.2-.4.4-.7.3-.1 0-.2-.1-.2-.5l1-3.9c0-.2.2-.4.4-.4.3 0 .3.1.6.5l.1.2c.2.3.3.5 1.6.5h9.5s.1 0 .1-.1c.4-.7.6-1.2.9-1.2.2 0 .5.1.5.6v3.8c-.2.7-.3.8-.6.8zm-11.3 10.8c0 .1-.1.2-.2.3-.2.1-.6.1-1.3 0-.4 0-1 0-1.5 0s-.9 0-1.4 0c-1 0-1.3 0-1.4-.1s-.2-.3-.1-.6c.1-.2.3-.3.7-.3.2 0 .4 0 .6-.1.1 0 .5-.1.5-.2 0-.2-.6-1.7-1.4-3.8l-.6-1.6c-2.4-.1-4.1-.1-4.6 0l-.6 1.7-.2.6-1.1 2.9v.3c.1.1.3.2.5.2s.4.1.6.1c.4 0 .6.1.8.4v.3c-.1.1-.2.1-.3.2-.5 0-1 0-1.6 0-.4 0-.8 0-1.4 0-.5 0-.9 0-1.3 0-.8 0-.9 0-1 0-.1-.1-.2-.2-.2-.3s0-.2.2-.3c.2-.2.4-.2.8-.2.2 0 .4 0 .8-.1.3 0 .8-.3 1-.6.1-.2 1.4-3.6 2.6-6.9l.1-.1c1.1-3 2.4-6.3 2.7-7.1l.8-.1c.2.2 1.6 4 3.7 9.4 1 2.6 1.9 4.8 2 5.1.2.3.7.4.9.4.7.1.8.2 1 .3-.1-.1 0 .1-.1.2zm-16.8.5c-.1.1-.1.1-.1.1h-.5c-2.1-2.1-6.8-7.2-9.6-10.2l-1.8-2c0 1.9 0 9.2.1 10.5 0 .2.5.3.7.4.3 0 .5.1.7.1.4 0 .6.1.8.3s.1.4 0 .6c-.1.1-.4.1-1.3.1-.4 0-1 0-1.6 0-.5 0-1 0-1.4 0-.9 0-1.1 0-1.2 0s-.1-.1-.1-.2 0-.2.1-.4c.2-.2.3-.2.7-.3.2 0 .4 0 .7-.1s.7-.3.7-.4c.1-.6.1-8.2 0-11 0-.8-.1-1-.1-1.1-.2-.7-1.3-.7-1.8-.8-.1 0-.2 0-.2 0l-.1-.7 3.3-.2c.3.2.8.6 1.3 1.1l9.7 10.7c-.1-2.6-.3-8.6-.4-10.4 0-.3-.5-.4-.7-.4-.3 0-.6-.1-.7-.1-.4 0-.6-.1-.7-.3-.2-.2-.1-.4 0-.6.1-.1.4-.1 1.3-.1h1.6 1.4 1.2c.1.1.1.1.1.2s0 .2-.1.4c-.2.2-.3.2-.7.3-.2 0-.4 0-.7.1-.4.1-.7.3-.7.3 0 .1.3 11.1.3 12zm-22.2-26.4v36.9h36.9v-4.1h1.1v4.1h36.9v-36.9zm28.9 18.4c.6 0 2.1.1 3.7 0l-1.9-5zm30.1-6.8c-1.6 0-2.9.5-3.9 1.5-1.5 1.5-2 3.7-2 5.3s.6 4 2.1 5.6c1 1 2.2 1.5 3.6 1.5 2 0 3.6-.7 4.6-2 .9-1.2 1.4-2.9 1.4-5 0-2.3-.6-4.1-1.8-5.3-1.4-1.4-3.2-1.6-4-1.6z"/><path d="m204.9 87.3c-.2.2-.3.2-.7.3-.2 0-.4 0-.7.1-.4.1-.7.3-.7.3 0 .1.3 11.1.3 12v2l-.7.2c-2.1-2.1-6.8-7.2-9.6-10.2l-1.8-2c0 1.9 0 9.2.1 10.5 0 .2.5.3.7.4.3 0 .5.1.7.1.4 0 .6.1.7.3.2.2.1.4 0 .6-.1.1-.4.1-1.3.1-.4 0-1 0-1.6 0-.5 0-1 0-1.4 0-1 0-1.2 0-1.3 0s-.1-.1-.1-.2 0-.2.1-.4c.2-.2.3-.2.7-.3.2 0 .4 0 .7-.1s.7-.2.7-.4c.1-.8.1-10.9.1-11 0-.8-.1-1-.1-1.1-.2-.7-1.3-.7-1.8-.8-.1 0-.2 0-.2 0l-.1-.7 3.3-.2c.3.2.8.6 1.3 1.1l9.7 10.7c-.1-2.6-.3-8.5-.4-10.3-.1-.3-.5-.4-.7-.4-.3 0-.6-.1-.7-.1-.4 0-.6-.1-.7-.3-.2-.3-.1-.5 0-.6s.4-.1 1.3-.1h1.6 1.4 1.2c.1 0 .1.1.1.2 0 0 0 .1-.1.3zm-17.4 14.1c0 .1-.1.2-.2.3-.2.1-.6.1-1.3 0-.4 0-.9 0-1.5 0-.5 0-1 0-1.4 0-1 0-1.3 0-1.4-.1s-.2-.3-.1-.6c.1-.2.3-.3.7-.3.2 0 .4 0 .6-.1.1 0 .5-.1.5-.2 0-.2-.6-1.7-1.4-3.8l-.6-1.6c-2.4-.1-4.1-.1-4.6 0l-.7 1.9-1.2 3.3v.3c.1.1.3.2.5.2s.4.1.5.1c.4 0 .6.1.8.4v.3c-.1.1-.2.1-.3.2-.5.1-1 0-1.6 0-.4 0-.8 0-1.3 0s-1 0-1.3 0c-.8 0-.9 0-1 0-.1-.1-.2-.2-.2-.3s0-.2.2-.3c.2-.2.4-.2.8-.2.2 0 .4 0 .8-.1.3 0 .8-.3 1-.6.1-.3 1.5-3.9 2.7-7.1 1-2.8 2.4-6.3 2.7-7.1l.8-.1c.2.2 1.6 4 3.7 9.4 1 2.6 1.8 4.8 1.9 5.1.2.3.7.4.9.4.7.1.8.2 1 .3zm-16.7.3c-.1.1-.3.1-1.5 0-.6 0-1.4 0-2.3-.1-1.2 0-1.9 0-2.4.1-.6 0-.9 0-1.2 0-.1 0-.2-.1-.2-.3 0-.1 0-.3.1-.4.2-.2.3-.2.7-.3.2 0 .4 0 .7-.1.4-.1 1.1-.4 1.2-.6.1-.5.1-7.6.1-10.9v-1.2h-2.8c-.8 0-1.3.3-1.9 1.1-.1.2-.5.8-.8 1.1-.2.2-.4.4-.7.3-.1 0-.2-.1-.2-.5l1-3.9c0-.2.2-.4.4-.4.3 0 .3.1.6.5l.1.2c.2.3.3.5 1.6.5h9.5s.1 0 .1-.1c.4-.7.6-1.2.9-1.2.2 0 .5.1.5.6v3.8c0 .2-.2.4-.4.4-.3 0-.4-.3-.6-1.1-.4-1.6-.9-1.6-3-1.6h-1.9v3.9c0 3.4 0 7.6.1 8.2.1.3.7.5 1 .5s.5.1.6.1c.5.1.8.1 1 .3-.1.8-.2 1-.3 1.1zm-12-3c-.1.1-2.3 3.4-7 3.4-2.4 0-4.5-.8-6-2.3s-2.3-3.5-2.3-5.7c0-2.1.7-4 2.1-5.4 1.6-1.6 3.8-2.5 6.5-2.5 2.3 0 4.4.8 5.9 2.4 1.4 1.4 2.2 3.4 2.2 5.4 0 1.3-.1 2.7-1.4 4.7zm16.1-22.7v4.1h-1.1v-4.1h-36.9v37h75v-37zm2.4 17.9c.6 0 2.1.1 3.7 0l-1.9-5zm-25.5-6.7c-1.6 0-2.9.5-3.9 1.5-1.5 1.5-2 3.7-2 5.3s.6 4 2.1 5.6c1 1 2.2 1.5 3.6 1.5 2 0 3.6-.7 4.6-2 .9-1.2 1.4-2.9 1.4-5 0-2.3-.6-4.1-1.8-5.3-1.4-1.4-3.2-1.6-4-1.6z"/></g></g></svg>