<svg enable-background="new 0 0 274 150" viewBox="0 0 274 150" xmlns="http://www.w3.org/2000/svg"><g fill="#b3b3b3"><path d="m75.5 55.4h-24.6c-4 0-7.3 3.3-7.3 7.3v24.6c0 4 3.3 7.3 7.3 7.3h31.9v-7.3-24.6c-.1-4.1-3.3-7.3-7.3-7.3zm-4.5 27.8h-15.6c-1.8 0-2.8-1.4-2.8-2.8 0-1.3 1-2.8 2.8-2.8h15.6c1.8 0 2.8 1.4 2.8 2.8-.1 1.4-1 2.8-2.8 2.8zm0-10.9h-15.6c-1.8 0-2.8-1.4-2.8-2.8 0-1.3 1-2.8 2.8-2.8h15.6c1.8 0 2.8 1.4 2.8 2.8-.1 1.4-1 2.8-2.8 2.8z"/><path d="m106.3 94.6h-9.7c-1.5 0-2.7-1.3-2.7-2.7v-33.8c0-1.5 1.3-2.7 2.7-2.7h9.7c6 0 10.8 4.9 10.8 10.8 0 3.1-1.3 6-3.5 8 2.7 2.2 4.3 5.5 4.3 8.9 0 6.3-5.2 11.5-11.6 11.5zm-7-5.5h7c3.4 0 6.1-2.7 6.1-6.1s-2.8-6.1-6.1-6.1h-7zm0-17.5h7c2.9 0 5.3-2.4 5.3-5.4v-.7c-.4-2.6-2.6-4.7-5.3-4.7h-7z"/><path d="m132 95.1c-5.9 0-10.9-4.8-10.9-10.5v-8.6c0-5.8 4.7-10.5 10.5-10.5s10.5 4.7 10.5 10.5v3.3c0 1.5-1.3 2.7-2.7 2.7h-12.8v2.7c0 2.6 2.6 5 5.5 5 1.8 0 3.2-.5 4.3-1.6.5-.8 1.3-1.2 2.2-1.2 1.5 0 2.8 1.3 2.8 2.7 0 .5-.1 1-.5 1.6s-.2.4-.7.8c-2.1 1.9-5 3.1-8.2 3.1zm-5.5-18.6h10v-.6c0-2.8-2.2-5-5-5s-5 2.2-5 5z"/><path d="m148.9 94.6c-1.3 0-2.7-.9-2.7-2.7v-33.8c0-1.8 1.3-2.7 2.7-2.7s2.7.9 2.7 2.7v33.7c0 1.9-1.4 2.8-2.7 2.8z"/><path d="m162.2 94.6c-1.3 0-2.7-.9-2.7-2.7v-20.5h-2.1c-1.8 0-2.7-1.3-2.7-2.7 0-1.3.9-2.7 2.7-2.7h2.1v-3c0-4.5 3.7-7.9 8.4-7.9 4.2 0 6.1 1.9 6.1 4 0 1.5-1 2.5-2.3 2.5-.6 0-1.1-.1-1.6-.4-.3-.1-1.1-.6-2.1-.6-2.2 0-3 1.3-3 2.5v2.9h5.7c1.8 0 2.7 1.3 2.7 2.7 0 1.3-.9 2.7-2.7 2.7h-5.7v20.5c-.1 1.8-1.5 2.7-2.8 2.7z"/><path d="m179.5 94.6c-1.3 0-2.7-.9-2.7-2.7v-23.2c0-1.8 1.3-2.7 2.7-2.7s2.7 1 2.7 2.7v23.2c0 1.8-1.4 2.7-2.7 2.7zm0-31.8c-1.3 0-2.7-.9-2.7-2.7v-1.9c0-1.8 1.3-2.7 2.7-2.7s2.7.9 2.7 2.7v1.9c0 1.8-1.4 2.7-2.7 2.7z"/><path d="m197.6 95.1c-5.8 0-10.5-4.7-10.5-10.5v-15.9c0-1.8 1.3-2.7 2.7-2.7 1.3 0 2.7 1 2.7 2.7v15.9c0 2.8 2.2 5 5 5s5-2.2 5-5v-15.9c0-1.8 1.3-2.7 2.7-2.7s2.7 1 2.7 2.7v15.9c.2 5.8-4.5 10.5-10.3 10.5z"/><path d="m220.4 95.1c-2.8 0-6.6-1.3-8.2-3.8-.4-.5-.5-1-.5-1.6 0-1.4 1.3-2.7 2.8-2.7.8 0 1.6.4 2.2 1.2l.1.1c.8.9 2.2 1.3 3.7 1.3 3 0 4.6-1.6 4.6-3.3 0-2.3-2.4-3.2-5.2-4.3-3.6-1.4-8-3.1-8-8.5 0-5.2 4.5-8 8.9-8 3.2 0 6.6 1.8 8.2 4.3.3.4.4 1 .4 1.5 0 1.5-1.3 2.7-2.8 2.7-.9 0-1.7-.4-2.2-1.3-1.1-1.3-2.2-1.8-3.7-1.8-2.1 0-3.4 1-3.4 2.5 0 1.7 2.2 2.6 4.6 3.6 3.8 1.5 8.5 3.4 8.5 9.3.1 5.7-5.1 8.8-10 8.8z"/></g></svg>