<svg enable-background="new 0 0 274 150" viewBox="0 0 274 150" xmlns="http://www.w3.org/2000/svg"><g fill="#b3b3b3"><path d="m168.7 119.6c.6 0 1.2-.2 1.8-.5.6-.4 1.1-.7 1.5-1.2v-7.4c-.4-.3-.8-.6-1.3-.8s-1-.3-1.6-.3c-1.4 0-2.3.5-2.9 1.4s-.9 2.2-.9 3.7c0 1.4.3 2.6.9 3.6s1.4 1.5 2.5 1.5m-40.9-88.5 35.1-10.6c-5.2 11.3-17.2 22.8-26.9 25.7-9.8 2.9-13.4-3.9-8.2-15.1m-17.8 67v9.6c.6-.4 1.2-.7 1.9-1 .7-.2 1.4-.4 2.1-.4 1.1 0 2.1.2 3 .6s1.6 1 2.1 1.7c.6.7 1 1.5 1.3 2.5.3.9.4 2 .4 3.1 0 1.2-.2 2.4-.6 3.5s-1 2-1.8 2.8-1.7 1.4-2.7 1.9-2.2.7-3.4.7c-1.1 0-2.2-.1-3.3-.3s-2.1-.5-3.1-.9v-23.8zm13.1 8.6h3.7v1.9c.6-.6 1.4-1.2 2.1-1.6.8-.5 1.7-.7 2.7-.7s2 .2 2.8.6 1.5 1 2 1.7 1 1.5 1.2 2.4c.3.9.4 1.9.4 2.9 0 1.2-.2 2.4-.6 3.5s-1 2-1.7 2.9c-.7.8-1.6 1.5-2.7 1.9-1 .5-2.2.7-3.5.7-.4 0-.9 0-1.3-.1s-.9-.2-1.2-.3v7.8h-4v-23.6zm16.7 9.4c.5-.7 1.2-1.2 2-1.6s1.8-.8 2.9-1c1.1-.3 2.3-.6 3.5-.9v-.4c0-.8-.2-1.5-.5-1.9-.3-.5-1-.7-2-.7-.5 0-1.1.1-1.6.2s-1 .2-1.4.4c-.4.1-.8.3-1.1.4s-.6.2-.8.2c-.1 0-.2 0-.2-.1-.1-.1-.1-.2-.1-.4s-.1-.5-.1-.9 0-.9 0-1.5c2.1-.9 4.2-1.4 6.4-1.4 1 0 1.9.1 2.6.4s1.2.7 1.6 1.2.7 1.1.8 1.8c.2.7.2 1.5.2 2.4v10.4h-3.5l-.2-2.1c-.7.7-1.5 1.4-2.3 1.8-.8.5-1.7.7-2.7.7-1.3 0-2.4-.4-3.2-1.1s-1.2-1.8-1.2-3.2c.2-1.2.4-2.1.9-2.7m15.3-16.6c.5-.5 1.1-.7 1.8-.7s1.3.2 1.8.7.7 1.1.7 1.9-.2 1.4-.7 1.9-1.1.7-1.8.7-1.3-.2-1.8-.7-.7-1.1-.7-1.9.2-1.5.7-1.9m6.5 12.1c.4-1.1 1-2 1.7-2.8s1.6-1.4 2.6-1.8 2.2-.6 3.5-.6c1 0 1.9.1 2.6.4v-8.7h4v24.6h-3.6l-.1-1.9c-.7.6-1.4 1.1-2.1 1.6-.8.5-1.6.7-2.6.7-1.1 0-2-.2-2.8-.7s-1.5-1-2-1.8c-.5-.7-1-1.6-1.2-2.5-.3-.9-.4-1.9-.4-2.9-.2-1.3 0-2.5.4-3.6m-2.7 11.1h-4v-15.9h4zm-14.3-2.9c.6 0 1.2-.2 1.8-.6s1.2-.9 1.8-1.4v-2.8c-.9.3-1.7.5-2.4.7-.6.2-1.2.4-1.6.6s-.7.4-.9.7-.3.6-.3 1.1c0 .6.1 1 .4 1.3.4.3.8.4 1.2.4m-31.7.1c.5 0 1-.1 1.5-.4s.8-.6 1.2-1.1c.3-.5.6-1 .8-1.6s.3-1.3.3-2.1c0-1.7-.3-2.9-1-3.8-.7-.8-1.5-1.2-2.6-1.2-.6 0-1.1.1-1.6.3s-1 .5-1.4.8v8.2c.4.3.9.5 1.4.6.3.2.9.3 1.4.3m15.5-.3c.5.2 1.1.4 1.6.4 1.2 0 2.2-.5 2.8-1.5s1-2.2 1-3.8c0-1.5-.3-2.7-.9-3.6s-1.4-1.3-2.5-1.3c-.6 0-1.2.2-1.8.5-.6.4-1.1.7-1.5 1.1v7.2c.4.4.8.7 1.3 1"/><path d="m144.7 113.4c-1.1.3-2.1.6-2.9 1s-1.5.9-2 1.6-.7 1.5-.7 2.6c0 1.4.4 2.5 1.2 3.2s1.9 1.1 3.2 1.1c1 0 1.9-.2 2.7-.7s1.6-1.1 2.3-1.8l.2 2.1h3.5v-10.4c0-.9-.1-1.7-.2-2.4-.2-.7-.4-1.3-.8-1.8s-.9-.9-1.6-1.2-1.5-.4-2.6-.4c-2.2 0-4.3.5-6.4 1.4v1.5c0 .4 0 .7.1.9 0 .2.1.3.1.4.1.1.1.1.2.1.2 0 .5-.1.8-.2s.7-.2 1.1-.4c.4-.1.9-.3 1.4-.4s1-.2 1.6-.2c1 0 1.7.2 2 .7s.5 1.1.5 1.9v.4c-1.4.5-2.6.8-3.7 1zm3.5 1.7v2.8c-.5.5-1.1 1-1.8 1.4-.6.4-1.2.6-1.8.6-.4 0-.8-.1-1-.4-.3-.3-.4-.7-.4-1.3 0-.4.1-.8.3-1.1s.5-.5.9-.7.9-.4 1.5-.6 1.4-.5 2.3-.7z"/><path d="m155 106.7h3.8v15.9h-3.8z"/><path d="m106 98.1v23.7c1 .4 2 .7 3.1.9s2.2.3 3.3.3c1.2 0 2.4-.2 3.4-.7s1.9-1.1 2.7-1.9 1.4-1.7 1.8-2.8.6-2.2.6-3.5c0-1.1-.1-2.1-.4-3.1-.3-.9-.7-1.8-1.3-2.5s-1.3-1.3-2.1-1.7c-.9-.4-1.9-.6-3-.6-.7 0-1.4.1-2.1.4-.7.2-1.4.6-1.9 1v-9.6h-4.1zm5.4 12c.5-.2 1-.3 1.6-.3 1 0 1.9.4 2.6 1.2s1 2.1 1 3.8c0 .8-.1 1.4-.3 2.1-.2.6-.5 1.2-.8 1.6-.3.5-.7.8-1.2 1.1s-1 .4-1.5.4-1-.1-1.5-.2-1-.3-1.3-.6v-8.2c.4-.4.9-.7 1.4-.9z"/><path d="m128.3 122.9c.4.1.9.1 1.3.1 1.3 0 2.4-.2 3.5-.7 1-.5 1.9-1.1 2.7-1.9s1.3-1.8 1.7-2.9.6-2.3.6-3.5c0-1-.1-2-.4-2.9s-.7-1.7-1.2-2.4-1.2-1.3-2-1.7-1.7-.6-2.8-.6c-1 0-1.9.2-2.7.7s-1.5 1-2.1 1.6v-1.9h-3.7v23.8h3.8v-7.9c.5 0 .9.1 1.3.2zm-1.3-11.5c.5-.4 1-.8 1.6-1.1.6-.4 1.2-.5 1.8-.5 1.1 0 2 .4 2.6 1.3s.9 2.1.9 3.6c0 1.6-.3 2.9-1 3.8-.6 1-1.6 1.5-2.8 1.5-.6 0-1.1-.1-1.7-.4-.5-.2-.8-.6-1.4-1z"/><path d="m158.8 99.5c-.5-.5-1.1-.7-1.8-.7s-1.3.2-1.8.7-.7 1.1-.7 1.9.2 1.4.7 1.9 1.1.7 1.8.7 1.3-.2 1.8-.7.7-1.1.7-1.9-.3-1.5-.7-1.9z"/><path d="m135.9 46.2c9.7-2.9 21.8-14.5 26.9-25.7l-35.1 10.6c-5.1 11.2-1.5 18 8.2 15.1z"/><path d="m139.2 62.1c-19.1 5.8-26.2-7.5-16-29.7l-10.1 3.1c-15.6 33.8-4.7 54.1 24.4 45.3 14.6-4.4 30.9-15.3 45.4-29.3v-24.6c-11.7 16.4-29.1 30.8-43.7 35.2z"/><path d="m164.7 122.3c.8.5 1.8.7 2.8.7s1.8-.2 2.6-.7 1.5-1 2.1-1.6l.1 1.8h3.6v-24.4h-4v8.7c-.7-.3-1.5-.4-2.6-.4-1.3 0-2.4.2-3.5.6-1 .4-1.9 1-2.6 1.8s-1.3 1.7-1.7 2.8-.6 2.3-.6 3.6c0 1 .1 1.9.4 2.9.3.9.7 1.8 1.2 2.5.7.7 1.4 1.3 2.2 1.7zm1.5-11.4c.6-.9 1.6-1.4 2.9-1.4.6 0 1.1.1 1.6.3s.9.5 1.3.8v7.4c-.3.4-.9.8-1.5 1.2s-1.2.5-1.8.5c-1.1 0-1.9-.5-2.5-1.4s-.9-2.1-.9-3.6c0-1.6.3-2.9.9-3.8z"/></g></svg>