<svg enable-background="new 0 0 250 45" viewBox="0 0 250 45" xmlns="http://www.w3.org/2000/svg"><g fill="#231f20"><path d="m54.5 11.5c2.6 0 4.7.9 6.4 2.7v-9.5c-1.6-.3-2.6-.5-3.1-.6s-.7-.4-.7-.8v-2h7.8v30.4c1.5.3 2.4.5 2.7.6.5.1.6.4.6.8v2h-5.7c-.5 0-.9-.3-1.1-.9l-.4-2.7c-2.2 2.7-4.8 3.9-7.8 3.9-2.7 0-4.9-1-6.4-3-1.6-2.1-2.4-4.9-2.4-8.8 0-3.5.9-6.4 2.7-8.6 1.9-2.3 4.4-3.5 7.4-3.5zm.1 20.7c2.4 0 4.5-1.2 6.2-3.5v-11.2c-1.4-1.8-3.2-2.7-5.4-2.7s-3.9.7-5.1 2.3-1.7 3.8-1.7 6.6c0 4.4 1.1 7.1 3.4 8.1.8.2 1.7.3 2.6.4z"/><path d="m75.1 43c-.8.4-1.8.5-2.8.5s-2-.2-2.8-.5l.2-2.2c0-.3.3-.5.7-.5h.9c1.2 0 2-.3 2.5-.8.5-.6.8-1.4.8-2.7v-21.5c-.5-.1-1.4-.2-2.7-.5-.5-.1-.6-.4-.6-.9v-2h3.3 4v24.9c0 3.2-1.1 5.2-3.5 6.2zm4.5-38.3c0 .4 0 .7-.2 1.1s-.4.6-.6.9c-.3.3-.5.5-.9.6-.4.2-.7.2-1.1.2s-.7 0-1.1-.2c-.5-.1-.7-.3-1-.6s-.5-.5-.6-.9c-.2-.4-.2-.7-.2-1.1s0-.8.2-1.1c.2-.4.4-.7.6-1 .3-.3.5-.5.9-.6.4-.2.7-.2 1.1-.2s.7 0 1.1.2.6.4.9.6c.3.3.5.6.6 1 .2.3.3.7.3 1.1z"/><path d="m92 15.2c1.9-2.4 4.1-3.6 6.5-3.6 1.6 0 2.9.5 3.8 1.3 1 .9 1.6 2.1 2.1 3.5.6-1.6 1.6-2.8 3-3.7 1.3-.7 2.6-1.2 4-1.2s2.6.2 3.6.6 1.8 1 2.5 1.7c1.4 1.6 2 3.7 2 6.5v11.4c1.5.3 2.4.5 2.7.6.5.1.7.4.7.8v2h-7.4v-14.7c0-1.8-.4-3.2-1.2-4.1s-2-1.4-3.5-1.4c-1.4 0-2.6.5-3.5 1.4-1 1-1.5 2.4-1.5 4.1v11.4c.3 0 1.1.3 2.6.6.5.1.7.4.7.8v2h-7.4v-14.8c0-3.7-1.5-5.5-4.4-5.5-1.9 0-3.6 1-5.2 3v13.9l1.2.2c.8.2 1.3.3 1.4.3.5.1.7.4.7.9v1.9h-10.5v-1.9c0-.5.2-.8.6-.9l2.7-.5v-16.5c-1.5-.3-2.4-.5-2.7-.6-.5-.1-.6-.4-.6-.9v-1.8h3.3 2.4c.5 0 .9.3 1.1.8z"/><path d="m148 34.5v.7h-3.1-1.2c-.4 0-.6-.2-.6-.6l-.2-3.6c-1 1.4-2.2 2.5-3.5 3.3-1.4.8-2.9 1.2-4.6 1.2-2.8 0-5-1-6.5-2.9-1.6-1.9-2.3-4.9-2.3-8.7 0-1.6.2-3.2.6-4.6.5-1.4 1.1-2.7 1.9-3.8.9-1.1 1.9-1.9 3.1-2.5s2.7-.9 4.3-.9 2.9.3 4 .9 2.1 1.4 2.9 2.5v-11.9c-.4 0-.8 0-1.1 0h-.7c-.1 0-.2 0-.3 0h-.2c-.6 0-.9-.3-.9-.8v-1h3.3 2.2v31.5h1 .6.3.2c.6 0 .9.3.9.8zm-5.2-17.3c-.9-1.3-1.9-2.2-2.9-2.7-1.1-.6-2.3-.8-3.6-.8s-2.5.2-3.5.7-1.8 1.2-2.5 2.1-1.2 2-1.6 3.2-.5 2.6-.5 4.1c0 3.4.6 5.9 1.9 7.5 1.2 1.6 3.1 2.4 5.4 2.4 1.5 0 2.8-.4 4.1-1.2 1.2-.8 2.3-1.9 3.3-3.3z"/><path d="m160.9 34.2v.9h-3.3-2.2-3.3v-.9c0-.5.3-.8.9-.8h.3.8c.4 0 .8-.1 1.3-.1v-19.1c-.4 0-.8 0-1.1 0h-.7c-.1 0-.3 0-.4 0h-.2c-.6 0-.9-.3-.9-.8v-.9h3.3 2.2v21h1.1s.6 0 .7 0h.4.2c.5-.1.9.2.9.7zm-6.3-28.9c-.1-.2-.2-.5-.2-.8s.1-.6.2-.8.2-.5.4-.6c.2-.2.4-.4.6-.5s.5-.1.8-.1.6 0 .8.1.5.3.6.5c.2.2.4.4.5.6.1.3.2.5.2.8s-.1.6-.2.8-.3.5-.5.6c-.2.2-.4.3-.6.4s-.5.2-.8.2-.5-.1-.8-.2c-.2-.1-.5-.2-.6-.4s-.3-.4-.4-.6z"/><path d="m176.3 12.3c.8.2 1.6.5 2.3 1h5.9v.8c0 .4-.2.6-.6.6l-3.5.3c.4.6.8 1.2 1 2 .2.7.3 1.5.3 2.3 0 1.1-.2 2.1-.6 3s-.9 1.6-1.6 2.3c-.7.6-1.6 1.1-2.6 1.5s-2.1.5-3.3.5c-1.3 0-2.5-.1-3.6-.6-.6.4-1.1.8-1.5 1.3s-.6 1-.6 1.5c0 .6.2 1.1.7 1.5s1.1.6 1.8.8 1.6.2 2.6.3c1 0 2 .1 3 .2 1 0 2 .1 2.9.3 1 .1 1.9.4 2.6.7.7.4 1.4.8 1.8 1.4.5.6.6 1.5.6 2.5s-.2 1.8-.7 2.7-1.1 1.6-2.1 2.3c-.9.7-1.9 1.2-3.2 1.6s-2.7.6-4.3.6-3-.2-4.2-.5-2.2-.8-3-1.3-1.4-1.2-1.8-1.9-.6-1.6-.6-2.4c0-1.2.4-2.2 1.2-3.1s1.9-1.6 3.3-2c-.8-.3-1.4-.6-1.8-1.1-.5-.5-.6-1.1-.6-2 0-.3 0-.6.2-1 .1-.4.3-.7.5-1.1s.5-.6.9-1c.4-.3.7-.6 1.2-.8-1.1-.6-1.9-1.5-2.5-2.5-.6-1.1-.9-2.2-.9-3.6 0-1.1.2-2.1.6-3s.9-1.6 1.6-2.3c.7-.6 1.6-1.1 2.6-1.5s2.1-.5 3.3-.5c1-.1 1.9 0 2.7.2zm5.2 22.7c-.4-.5-.8-.8-1.5-1-.6-.2-1.4-.5-2.2-.6s-1.6-.1-2.6-.2c-.9 0-1.7-.1-2.7-.1-.9 0-1.7-.1-2.5-.3-.6.2-1.1.5-1.6.8s-.9.6-1.2 1c-.4.4-.6.8-.8 1.2-.2.5-.3.9-.3 1.5 0 .7.1 1.3.5 1.9s.9 1.1 1.5 1.5 1.5.8 2.5 1 2.1.4 3.3.4c1.1 0 2.2-.1 3.3-.4 1-.3 1.9-.6 2.6-1.1s1.3-1.1 1.7-1.7.6-1.3.6-2.1-.3-1.4-.6-1.8zm-5.3-10.3c.8-.3 1.4-.7 1.9-1.2s.9-1.1 1.2-1.8.4-1.5.4-2.4-.1-1.6-.4-2.3-.7-1.3-1.2-1.8-1.2-.9-1.9-1.2-1.6-.4-2.6-.4-1.8.1-2.6.4-1.4.7-2 1.2-.9 1.1-1.2 1.8-.4 1.5-.4 2.4.1 1.6.4 2.3.6 1.3 1.2 1.8c.5.5 1.2.9 2 1.2s1.6.4 2.6.4c.9 0 1.8-.2 2.6-.4z"/><path d="m197.4 34.2v.9h-3.3-2.2-3.3v-.9c0-.5.3-.8.9-.8h.3.8c.4 0 .8-.1 1.3-.1v-19.1c-.4 0-.8 0-1.1 0h-.7c-.1 0-.3 0-.4 0h-.2c-.6 0-.9-.3-.9-.8v-.9h3.3 2.2v21h1.1s.6 0 .7 0h.4.2c.6-.1.9.2.9.7zm-6.2-28.9c-.1-.2-.2-.5-.2-.8s.1-.6.2-.8.2-.5.4-.6c.2-.2.4-.4.6-.5s.5-.1.8-.1.6 0 .8.1.5.3.6.5c.2.2.4.4.5.6.1.3.2.5.2.8s-.1.6-.2.8-.3.5-.5.6c-.2.2-.4.3-.6.4s-.5.2-.8.2-.5-.1-.8-.2-.5-.2-.6-.4c-.2-.2-.3-.4-.4-.6z"/><path d="m205.1 34.2c-.9-.9-1.3-2.2-1.3-3.9v-15.6h-3.3c-.2 0-.4-.1-.5-.2s-.1-.2-.1-.4v-.8l3.9-.3.5-8.1c0-.1.1-.3.2-.4s.2-.2.4-.2h1.1v8.7h7.2v1.6h-7.2v15.4c0 .6 0 1.1.2 1.6s.4.8.7 1.1.6.5 1 .6.8.2 1.3.2c.6 0 1 0 1.4-.2s.8-.4 1.1-.6.5-.3.7-.5.4-.2.5-.2.2 0 .4.2l.6 1c-.6.6-1.3 1.1-2.2 1.5s-1.8.6-2.8.6c-1.7.2-2.9-.2-3.8-1.1z"/><path d="m237 34.2v.9h-3-.8c-.5 0-.8-.2-.9-.6l-.3-2.9c-.6.6-1.2 1.1-1.8 1.6s-1.3.9-2 1.2-1.4.6-2.2.8-1.6.3-2.6.3c-.8 0-1.5-.1-2.2-.4-.7-.2-1.4-.6-2-1.1-.5-.5-1-1.1-1.4-1.8-.3-.7-.5-1.6-.5-2.7 0-1 .3-1.8.8-2.7.6-.8 1.4-1.6 2.6-2.2s2.7-1.1 4.5-1.5 4-.6 6.6-.6v-2.4c0-2.1-.4-3.7-1.3-4.9-.9-1.1-2.3-1.7-4.1-1.7-1.1 0-2 .1-2.8.5-.8.3-1.4.6-1.9 1-.6.4-1 .6-1.3 1-.3.3-.6.5-.9.5s-.5-.1-.7-.4l-.4-.7c1.2-1.2 2.4-2.1 3.8-2.7 1.3-.6 2.8-.9 4.4-.9 1.2 0 2.3.2 3.2.6s1.7.9 2.3 1.6 1.1 1.6 1.4 2.7.5 2.2.5 3.4v13.1h1.1.7.3c.6.2.9.5.9 1zm-5.2-10.1c-2.2 0-4 .2-5.6.5s-2.8.6-3.8 1.1-1.7 1-2.2 1.6-.7 1.4-.7 2.2.1 1.4.4 2c.2.6.6 1 1 1.4s.9.6 1.4.8c.6.2 1.1.2 1.7.2.9 0 1.7-.1 2.4-.3s1.4-.4 2.1-.8c.6-.4 1.2-.8 1.8-1.2.6-.5 1.1-1 1.6-1.6z"/><path d="m250 34.2v.9h-3.3-2.2-3.3v-.9c0-.5.3-.8.9-.8h.3.8c.4 0 .8-.1 1.3-.1v-29.7c-.4 0-.8 0-1.1 0h-.7c-.1 0-.3 0-.4 0h-.2c-.6 0-.9-.3-.9-.8v-1h3.3 2.2v31.5h1.1s.6 0 .7 0h.4.2c.6.1.9.4.9.9z"/></g><path d="m0 1.7v34.2h21.3 11.7v-13.8-20.4zm16.8 24.7h-6v-16.1h6.1c2.7 0 5.2 1.4 6.6 3.5.9 1.3 1.4 2.9 1.4 4.5-.1 4.5-3.7 8.1-8.1 8.1z" fill="#987f49" stroke="#987f49" stroke-miterlimit="10" stroke-width=".5"/></svg>